%TF.GenerationSoftware,KiCad,Pcbnew,9.0.6*%
%TF.CreationDate,2026-06-26T16:48:06+01:00*%
%TF.ProjectId,KiCad-STM32-tut,4b694361-642d-4535-944d-33322d747574,rev?*%
%TF.SameCoordinates,Original*%
%TF.FileFunction,Legend,Top*%
%TF.FilePolarity,Positive*%
%FSLAX46Y46*%
G04 Gerber Fmt 4.6, Leading zero omitted, Abs format (unit mm)*
G04 Created by KiCad (PCBNEW 9.0.6) date 2026-06-26 16:48:06*
%MOMM*%
%LPD*%
G01*
G04 APERTURE LIST*
%ADD10C,0.200000*%
%ADD11C,0.150000*%
%ADD12C,0.120000*%
%ADD13C,0.000000*%
G04 APERTURE END LIST*
D10*
X153619673Y-59027100D02*
X153798244Y-59086623D01*
X153798244Y-59086623D02*
X154095863Y-59086623D01*
X154095863Y-59086623D02*
X154214911Y-59027100D01*
X154214911Y-59027100D02*
X154274435Y-58967576D01*
X154274435Y-58967576D02*
X154333958Y-58848528D01*
X154333958Y-58848528D02*
X154333958Y-58729480D01*
X154333958Y-58729480D02*
X154274435Y-58610433D01*
X154274435Y-58610433D02*
X154214911Y-58550909D01*
X154214911Y-58550909D02*
X154095863Y-58491385D01*
X154095863Y-58491385D02*
X153857768Y-58431861D01*
X153857768Y-58431861D02*
X153738720Y-58372338D01*
X153738720Y-58372338D02*
X153679197Y-58312814D01*
X153679197Y-58312814D02*
X153619673Y-58193766D01*
X153619673Y-58193766D02*
X153619673Y-58074719D01*
X153619673Y-58074719D02*
X153679197Y-57955671D01*
X153679197Y-57955671D02*
X153738720Y-57896147D01*
X153738720Y-57896147D02*
X153857768Y-57836623D01*
X153857768Y-57836623D02*
X154155387Y-57836623D01*
X154155387Y-57836623D02*
X154333958Y-57896147D01*
X154750625Y-57836623D02*
X155048244Y-59086623D01*
X155048244Y-59086623D02*
X155286339Y-58193766D01*
X155286339Y-58193766D02*
X155524434Y-59086623D01*
X155524434Y-59086623D02*
X155822054Y-57836623D01*
X156298244Y-59086623D02*
X156298244Y-57836623D01*
X156298244Y-57836623D02*
X156595863Y-57836623D01*
X156595863Y-57836623D02*
X156774434Y-57896147D01*
X156774434Y-57896147D02*
X156893482Y-58015195D01*
X156893482Y-58015195D02*
X156953005Y-58134242D01*
X156953005Y-58134242D02*
X157012529Y-58372338D01*
X157012529Y-58372338D02*
X157012529Y-58550909D01*
X157012529Y-58550909D02*
X156953005Y-58789004D01*
X156953005Y-58789004D02*
X156893482Y-58908052D01*
X156893482Y-58908052D02*
X156774434Y-59027100D01*
X156774434Y-59027100D02*
X156595863Y-59086623D01*
X156595863Y-59086623D02*
X156298244Y-59086623D01*
X167707292Y-77636623D02*
X167945387Y-77636623D01*
X167945387Y-77636623D02*
X168064435Y-77696147D01*
X168064435Y-77696147D02*
X168183482Y-77815195D01*
X168183482Y-77815195D02*
X168243006Y-78053290D01*
X168243006Y-78053290D02*
X168243006Y-78469957D01*
X168243006Y-78469957D02*
X168183482Y-78708052D01*
X168183482Y-78708052D02*
X168064435Y-78827100D01*
X168064435Y-78827100D02*
X167945387Y-78886623D01*
X167945387Y-78886623D02*
X167707292Y-78886623D01*
X167707292Y-78886623D02*
X167588244Y-78827100D01*
X167588244Y-78827100D02*
X167469197Y-78708052D01*
X167469197Y-78708052D02*
X167409673Y-78469957D01*
X167409673Y-78469957D02*
X167409673Y-78053290D01*
X167409673Y-78053290D02*
X167469197Y-77815195D01*
X167469197Y-77815195D02*
X167588244Y-77696147D01*
X167588244Y-77696147D02*
X167707292Y-77636623D01*
X168778721Y-78886623D02*
X168778721Y-77636623D01*
X168778721Y-77636623D02*
X169493006Y-78886623D01*
X169493006Y-78886623D02*
X169493006Y-77636623D01*
X142179197Y-57836623D02*
X142179197Y-58848528D01*
X142179197Y-58848528D02*
X142238720Y-58967576D01*
X142238720Y-58967576D02*
X142298244Y-59027100D01*
X142298244Y-59027100D02*
X142417292Y-59086623D01*
X142417292Y-59086623D02*
X142655387Y-59086623D01*
X142655387Y-59086623D02*
X142774435Y-59027100D01*
X142774435Y-59027100D02*
X142833958Y-58967576D01*
X142833958Y-58967576D02*
X142893482Y-58848528D01*
X142893482Y-58848528D02*
X142893482Y-57836623D01*
X143429197Y-58729480D02*
X144024435Y-58729480D01*
X143310149Y-59086623D02*
X143726816Y-57836623D01*
X143726816Y-57836623D02*
X144143482Y-59086623D01*
X145274435Y-59086623D02*
X144857769Y-58491385D01*
X144560150Y-59086623D02*
X144560150Y-57836623D01*
X144560150Y-57836623D02*
X145036340Y-57836623D01*
X145036340Y-57836623D02*
X145155388Y-57896147D01*
X145155388Y-57896147D02*
X145214911Y-57955671D01*
X145214911Y-57955671D02*
X145274435Y-58074719D01*
X145274435Y-58074719D02*
X145274435Y-58253290D01*
X145274435Y-58253290D02*
X145214911Y-58372338D01*
X145214911Y-58372338D02*
X145155388Y-58431861D01*
X145155388Y-58431861D02*
X145036340Y-58491385D01*
X145036340Y-58491385D02*
X144560150Y-58491385D01*
X145631578Y-57836623D02*
X146345864Y-57836623D01*
X145988721Y-59086623D02*
X145988721Y-57836623D01*
X163179197Y-64836623D02*
X163179197Y-65848528D01*
X163179197Y-65848528D02*
X163238720Y-65967576D01*
X163238720Y-65967576D02*
X163298244Y-66027100D01*
X163298244Y-66027100D02*
X163417292Y-66086623D01*
X163417292Y-66086623D02*
X163655387Y-66086623D01*
X163655387Y-66086623D02*
X163774435Y-66027100D01*
X163774435Y-66027100D02*
X163833958Y-65967576D01*
X163833958Y-65967576D02*
X163893482Y-65848528D01*
X163893482Y-65848528D02*
X163893482Y-64836623D01*
X164429197Y-66027100D02*
X164607768Y-66086623D01*
X164607768Y-66086623D02*
X164905387Y-66086623D01*
X164905387Y-66086623D02*
X165024435Y-66027100D01*
X165024435Y-66027100D02*
X165083959Y-65967576D01*
X165083959Y-65967576D02*
X165143482Y-65848528D01*
X165143482Y-65848528D02*
X165143482Y-65729480D01*
X165143482Y-65729480D02*
X165083959Y-65610433D01*
X165083959Y-65610433D02*
X165024435Y-65550909D01*
X165024435Y-65550909D02*
X164905387Y-65491385D01*
X164905387Y-65491385D02*
X164667292Y-65431861D01*
X164667292Y-65431861D02*
X164548244Y-65372338D01*
X164548244Y-65372338D02*
X164488721Y-65312814D01*
X164488721Y-65312814D02*
X164429197Y-65193766D01*
X164429197Y-65193766D02*
X164429197Y-65074719D01*
X164429197Y-65074719D02*
X164488721Y-64955671D01*
X164488721Y-64955671D02*
X164548244Y-64896147D01*
X164548244Y-64896147D02*
X164667292Y-64836623D01*
X164667292Y-64836623D02*
X164964911Y-64836623D01*
X164964911Y-64836623D02*
X165143482Y-64896147D01*
X166095863Y-65431861D02*
X166274435Y-65491385D01*
X166274435Y-65491385D02*
X166333958Y-65550909D01*
X166333958Y-65550909D02*
X166393482Y-65669957D01*
X166393482Y-65669957D02*
X166393482Y-65848528D01*
X166393482Y-65848528D02*
X166333958Y-65967576D01*
X166333958Y-65967576D02*
X166274435Y-66027100D01*
X166274435Y-66027100D02*
X166155387Y-66086623D01*
X166155387Y-66086623D02*
X165679197Y-66086623D01*
X165679197Y-66086623D02*
X165679197Y-64836623D01*
X165679197Y-64836623D02*
X166095863Y-64836623D01*
X166095863Y-64836623D02*
X166214911Y-64896147D01*
X166214911Y-64896147D02*
X166274435Y-64955671D01*
X166274435Y-64955671D02*
X166333958Y-65074719D01*
X166333958Y-65074719D02*
X166333958Y-65193766D01*
X166333958Y-65193766D02*
X166274435Y-65312814D01*
X166274435Y-65312814D02*
X166214911Y-65372338D01*
X166214911Y-65372338D02*
X166095863Y-65431861D01*
X166095863Y-65431861D02*
X165679197Y-65431861D01*
X126595863Y-61181861D02*
X126774435Y-61241385D01*
X126774435Y-61241385D02*
X126833958Y-61300909D01*
X126833958Y-61300909D02*
X126893482Y-61419957D01*
X126893482Y-61419957D02*
X126893482Y-61598528D01*
X126893482Y-61598528D02*
X126833958Y-61717576D01*
X126833958Y-61717576D02*
X126774435Y-61777100D01*
X126774435Y-61777100D02*
X126655387Y-61836623D01*
X126655387Y-61836623D02*
X126179197Y-61836623D01*
X126179197Y-61836623D02*
X126179197Y-60586623D01*
X126179197Y-60586623D02*
X126595863Y-60586623D01*
X126595863Y-60586623D02*
X126714911Y-60646147D01*
X126714911Y-60646147D02*
X126774435Y-60705671D01*
X126774435Y-60705671D02*
X126833958Y-60824719D01*
X126833958Y-60824719D02*
X126833958Y-60943766D01*
X126833958Y-60943766D02*
X126774435Y-61062814D01*
X126774435Y-61062814D02*
X126714911Y-61122338D01*
X126714911Y-61122338D02*
X126595863Y-61181861D01*
X126595863Y-61181861D02*
X126179197Y-61181861D01*
X127667292Y-60586623D02*
X127905387Y-60586623D01*
X127905387Y-60586623D02*
X128024435Y-60646147D01*
X128024435Y-60646147D02*
X128143482Y-60765195D01*
X128143482Y-60765195D02*
X128203006Y-61003290D01*
X128203006Y-61003290D02*
X128203006Y-61419957D01*
X128203006Y-61419957D02*
X128143482Y-61658052D01*
X128143482Y-61658052D02*
X128024435Y-61777100D01*
X128024435Y-61777100D02*
X127905387Y-61836623D01*
X127905387Y-61836623D02*
X127667292Y-61836623D01*
X127667292Y-61836623D02*
X127548244Y-61777100D01*
X127548244Y-61777100D02*
X127429197Y-61658052D01*
X127429197Y-61658052D02*
X127369673Y-61419957D01*
X127369673Y-61419957D02*
X127369673Y-61003290D01*
X127369673Y-61003290D02*
X127429197Y-60765195D01*
X127429197Y-60765195D02*
X127548244Y-60646147D01*
X127548244Y-60646147D02*
X127667292Y-60586623D01*
X128976816Y-60586623D02*
X129214911Y-60586623D01*
X129214911Y-60586623D02*
X129333959Y-60646147D01*
X129333959Y-60646147D02*
X129453006Y-60765195D01*
X129453006Y-60765195D02*
X129512530Y-61003290D01*
X129512530Y-61003290D02*
X129512530Y-61419957D01*
X129512530Y-61419957D02*
X129453006Y-61658052D01*
X129453006Y-61658052D02*
X129333959Y-61777100D01*
X129333959Y-61777100D02*
X129214911Y-61836623D01*
X129214911Y-61836623D02*
X128976816Y-61836623D01*
X128976816Y-61836623D02*
X128857768Y-61777100D01*
X128857768Y-61777100D02*
X128738721Y-61658052D01*
X128738721Y-61658052D02*
X128679197Y-61419957D01*
X128679197Y-61419957D02*
X128679197Y-61003290D01*
X128679197Y-61003290D02*
X128738721Y-60765195D01*
X128738721Y-60765195D02*
X128857768Y-60646147D01*
X128857768Y-60646147D02*
X128976816Y-60586623D01*
X129869673Y-60586623D02*
X130583959Y-60586623D01*
X130226816Y-61836623D02*
X130226816Y-60586623D01*
D11*
X160357142Y-80059580D02*
X160309523Y-80107200D01*
X160309523Y-80107200D02*
X160166666Y-80154819D01*
X160166666Y-80154819D02*
X160071428Y-80154819D01*
X160071428Y-80154819D02*
X159928571Y-80107200D01*
X159928571Y-80107200D02*
X159833333Y-80011961D01*
X159833333Y-80011961D02*
X159785714Y-79916723D01*
X159785714Y-79916723D02*
X159738095Y-79726247D01*
X159738095Y-79726247D02*
X159738095Y-79583390D01*
X159738095Y-79583390D02*
X159785714Y-79392914D01*
X159785714Y-79392914D02*
X159833333Y-79297676D01*
X159833333Y-79297676D02*
X159928571Y-79202438D01*
X159928571Y-79202438D02*
X160071428Y-79154819D01*
X160071428Y-79154819D02*
X160166666Y-79154819D01*
X160166666Y-79154819D02*
X160309523Y-79202438D01*
X160309523Y-79202438D02*
X160357142Y-79250057D01*
X161309523Y-80154819D02*
X160738095Y-80154819D01*
X161023809Y-80154819D02*
X161023809Y-79154819D01*
X161023809Y-79154819D02*
X160928571Y-79297676D01*
X160928571Y-79297676D02*
X160833333Y-79392914D01*
X160833333Y-79392914D02*
X160738095Y-79440533D01*
X161642857Y-79154819D02*
X162261904Y-79154819D01*
X162261904Y-79154819D02*
X161928571Y-79535771D01*
X161928571Y-79535771D02*
X162071428Y-79535771D01*
X162071428Y-79535771D02*
X162166666Y-79583390D01*
X162166666Y-79583390D02*
X162214285Y-79631009D01*
X162214285Y-79631009D02*
X162261904Y-79726247D01*
X162261904Y-79726247D02*
X162261904Y-79964342D01*
X162261904Y-79964342D02*
X162214285Y-80059580D01*
X162214285Y-80059580D02*
X162166666Y-80107200D01*
X162166666Y-80107200D02*
X162071428Y-80154819D01*
X162071428Y-80154819D02*
X161785714Y-80154819D01*
X161785714Y-80154819D02*
X161690476Y-80107200D01*
X161690476Y-80107200D02*
X161642857Y-80059580D01*
X140333333Y-87954819D02*
X140000000Y-87478628D01*
X139761905Y-87954819D02*
X139761905Y-86954819D01*
X139761905Y-86954819D02*
X140142857Y-86954819D01*
X140142857Y-86954819D02*
X140238095Y-87002438D01*
X140238095Y-87002438D02*
X140285714Y-87050057D01*
X140285714Y-87050057D02*
X140333333Y-87145295D01*
X140333333Y-87145295D02*
X140333333Y-87288152D01*
X140333333Y-87288152D02*
X140285714Y-87383390D01*
X140285714Y-87383390D02*
X140238095Y-87431009D01*
X140238095Y-87431009D02*
X140142857Y-87478628D01*
X140142857Y-87478628D02*
X139761905Y-87478628D01*
X141190476Y-87288152D02*
X141190476Y-87954819D01*
X140952381Y-86907200D02*
X140714286Y-87621485D01*
X140714286Y-87621485D02*
X141333333Y-87621485D01*
X154738095Y-89954819D02*
X154738095Y-90764342D01*
X154738095Y-90764342D02*
X154785714Y-90859580D01*
X154785714Y-90859580D02*
X154833333Y-90907200D01*
X154833333Y-90907200D02*
X154928571Y-90954819D01*
X154928571Y-90954819D02*
X155119047Y-90954819D01*
X155119047Y-90954819D02*
X155214285Y-90907200D01*
X155214285Y-90907200D02*
X155261904Y-90859580D01*
X155261904Y-90859580D02*
X155309523Y-90764342D01*
X155309523Y-90764342D02*
X155309523Y-89954819D01*
X155738095Y-90050057D02*
X155785714Y-90002438D01*
X155785714Y-90002438D02*
X155880952Y-89954819D01*
X155880952Y-89954819D02*
X156119047Y-89954819D01*
X156119047Y-89954819D02*
X156214285Y-90002438D01*
X156214285Y-90002438D02*
X156261904Y-90050057D01*
X156261904Y-90050057D02*
X156309523Y-90145295D01*
X156309523Y-90145295D02*
X156309523Y-90240533D01*
X156309523Y-90240533D02*
X156261904Y-90383390D01*
X156261904Y-90383390D02*
X155690476Y-90954819D01*
X155690476Y-90954819D02*
X156309523Y-90954819D01*
X165704819Y-81488094D02*
X164704819Y-81488094D01*
X164704819Y-81488094D02*
X164704819Y-81249999D01*
X164704819Y-81249999D02*
X164752438Y-81107142D01*
X164752438Y-81107142D02*
X164847676Y-81011904D01*
X164847676Y-81011904D02*
X164942914Y-80964285D01*
X164942914Y-80964285D02*
X165133390Y-80916666D01*
X165133390Y-80916666D02*
X165276247Y-80916666D01*
X165276247Y-80916666D02*
X165466723Y-80964285D01*
X165466723Y-80964285D02*
X165561961Y-81011904D01*
X165561961Y-81011904D02*
X165657200Y-81107142D01*
X165657200Y-81107142D02*
X165704819Y-81249999D01*
X165704819Y-81249999D02*
X165704819Y-81488094D01*
X165704819Y-79964285D02*
X165704819Y-80535713D01*
X165704819Y-80249999D02*
X164704819Y-80249999D01*
X164704819Y-80249999D02*
X164847676Y-80345237D01*
X164847676Y-80345237D02*
X164942914Y-80440475D01*
X164942914Y-80440475D02*
X164990533Y-80535713D01*
X127607142Y-78359580D02*
X127559523Y-78407200D01*
X127559523Y-78407200D02*
X127416666Y-78454819D01*
X127416666Y-78454819D02*
X127321428Y-78454819D01*
X127321428Y-78454819D02*
X127178571Y-78407200D01*
X127178571Y-78407200D02*
X127083333Y-78311961D01*
X127083333Y-78311961D02*
X127035714Y-78216723D01*
X127035714Y-78216723D02*
X126988095Y-78026247D01*
X126988095Y-78026247D02*
X126988095Y-77883390D01*
X126988095Y-77883390D02*
X127035714Y-77692914D01*
X127035714Y-77692914D02*
X127083333Y-77597676D01*
X127083333Y-77597676D02*
X127178571Y-77502438D01*
X127178571Y-77502438D02*
X127321428Y-77454819D01*
X127321428Y-77454819D02*
X127416666Y-77454819D01*
X127416666Y-77454819D02*
X127559523Y-77502438D01*
X127559523Y-77502438D02*
X127607142Y-77550057D01*
X128559523Y-78454819D02*
X127988095Y-78454819D01*
X128273809Y-78454819D02*
X128273809Y-77454819D01*
X128273809Y-77454819D02*
X128178571Y-77597676D01*
X128178571Y-77597676D02*
X128083333Y-77692914D01*
X128083333Y-77692914D02*
X127988095Y-77740533D01*
X129178571Y-77454819D02*
X129273809Y-77454819D01*
X129273809Y-77454819D02*
X129369047Y-77502438D01*
X129369047Y-77502438D02*
X129416666Y-77550057D01*
X129416666Y-77550057D02*
X129464285Y-77645295D01*
X129464285Y-77645295D02*
X129511904Y-77835771D01*
X129511904Y-77835771D02*
X129511904Y-78073866D01*
X129511904Y-78073866D02*
X129464285Y-78264342D01*
X129464285Y-78264342D02*
X129416666Y-78359580D01*
X129416666Y-78359580D02*
X129369047Y-78407200D01*
X129369047Y-78407200D02*
X129273809Y-78454819D01*
X129273809Y-78454819D02*
X129178571Y-78454819D01*
X129178571Y-78454819D02*
X129083333Y-78407200D01*
X129083333Y-78407200D02*
X129035714Y-78359580D01*
X129035714Y-78359580D02*
X128988095Y-78264342D01*
X128988095Y-78264342D02*
X128940476Y-78073866D01*
X128940476Y-78073866D02*
X128940476Y-77835771D01*
X128940476Y-77835771D02*
X128988095Y-77645295D01*
X128988095Y-77645295D02*
X129035714Y-77550057D01*
X129035714Y-77550057D02*
X129083333Y-77502438D01*
X129083333Y-77502438D02*
X129178571Y-77454819D01*
X151333333Y-69359580D02*
X151285714Y-69407200D01*
X151285714Y-69407200D02*
X151142857Y-69454819D01*
X151142857Y-69454819D02*
X151047619Y-69454819D01*
X151047619Y-69454819D02*
X150904762Y-69407200D01*
X150904762Y-69407200D02*
X150809524Y-69311961D01*
X150809524Y-69311961D02*
X150761905Y-69216723D01*
X150761905Y-69216723D02*
X150714286Y-69026247D01*
X150714286Y-69026247D02*
X150714286Y-68883390D01*
X150714286Y-68883390D02*
X150761905Y-68692914D01*
X150761905Y-68692914D02*
X150809524Y-68597676D01*
X150809524Y-68597676D02*
X150904762Y-68502438D01*
X150904762Y-68502438D02*
X151047619Y-68454819D01*
X151047619Y-68454819D02*
X151142857Y-68454819D01*
X151142857Y-68454819D02*
X151285714Y-68502438D01*
X151285714Y-68502438D02*
X151333333Y-68550057D01*
X152285714Y-69454819D02*
X151714286Y-69454819D01*
X152000000Y-69454819D02*
X152000000Y-68454819D01*
X152000000Y-68454819D02*
X151904762Y-68597676D01*
X151904762Y-68597676D02*
X151809524Y-68692914D01*
X151809524Y-68692914D02*
X151714286Y-68740533D01*
X149583333Y-77639580D02*
X149535714Y-77687200D01*
X149535714Y-77687200D02*
X149392857Y-77734819D01*
X149392857Y-77734819D02*
X149297619Y-77734819D01*
X149297619Y-77734819D02*
X149154762Y-77687200D01*
X149154762Y-77687200D02*
X149059524Y-77591961D01*
X149059524Y-77591961D02*
X149011905Y-77496723D01*
X149011905Y-77496723D02*
X148964286Y-77306247D01*
X148964286Y-77306247D02*
X148964286Y-77163390D01*
X148964286Y-77163390D02*
X149011905Y-76972914D01*
X149011905Y-76972914D02*
X149059524Y-76877676D01*
X149059524Y-76877676D02*
X149154762Y-76782438D01*
X149154762Y-76782438D02*
X149297619Y-76734819D01*
X149297619Y-76734819D02*
X149392857Y-76734819D01*
X149392857Y-76734819D02*
X149535714Y-76782438D01*
X149535714Y-76782438D02*
X149583333Y-76830057D01*
X150440476Y-77068152D02*
X150440476Y-77734819D01*
X150202381Y-76687200D02*
X149964286Y-77401485D01*
X149964286Y-77401485D02*
X150583333Y-77401485D01*
X133043333Y-75859580D02*
X132995714Y-75907200D01*
X132995714Y-75907200D02*
X132852857Y-75954819D01*
X132852857Y-75954819D02*
X132757619Y-75954819D01*
X132757619Y-75954819D02*
X132614762Y-75907200D01*
X132614762Y-75907200D02*
X132519524Y-75811961D01*
X132519524Y-75811961D02*
X132471905Y-75716723D01*
X132471905Y-75716723D02*
X132424286Y-75526247D01*
X132424286Y-75526247D02*
X132424286Y-75383390D01*
X132424286Y-75383390D02*
X132471905Y-75192914D01*
X132471905Y-75192914D02*
X132519524Y-75097676D01*
X132519524Y-75097676D02*
X132614762Y-75002438D01*
X132614762Y-75002438D02*
X132757619Y-74954819D01*
X132757619Y-74954819D02*
X132852857Y-74954819D01*
X132852857Y-74954819D02*
X132995714Y-75002438D01*
X132995714Y-75002438D02*
X133043333Y-75050057D01*
X133376667Y-74954819D02*
X134043333Y-74954819D01*
X134043333Y-74954819D02*
X133614762Y-75954819D01*
X152857142Y-78329580D02*
X152809523Y-78377200D01*
X152809523Y-78377200D02*
X152666666Y-78424819D01*
X152666666Y-78424819D02*
X152571428Y-78424819D01*
X152571428Y-78424819D02*
X152428571Y-78377200D01*
X152428571Y-78377200D02*
X152333333Y-78281961D01*
X152333333Y-78281961D02*
X152285714Y-78186723D01*
X152285714Y-78186723D02*
X152238095Y-77996247D01*
X152238095Y-77996247D02*
X152238095Y-77853390D01*
X152238095Y-77853390D02*
X152285714Y-77662914D01*
X152285714Y-77662914D02*
X152333333Y-77567676D01*
X152333333Y-77567676D02*
X152428571Y-77472438D01*
X152428571Y-77472438D02*
X152571428Y-77424819D01*
X152571428Y-77424819D02*
X152666666Y-77424819D01*
X152666666Y-77424819D02*
X152809523Y-77472438D01*
X152809523Y-77472438D02*
X152857142Y-77520057D01*
X153809523Y-78424819D02*
X153238095Y-78424819D01*
X153523809Y-78424819D02*
X153523809Y-77424819D01*
X153523809Y-77424819D02*
X153428571Y-77567676D01*
X153428571Y-77567676D02*
X153333333Y-77662914D01*
X153333333Y-77662914D02*
X153238095Y-77710533D01*
X154190476Y-77520057D02*
X154238095Y-77472438D01*
X154238095Y-77472438D02*
X154333333Y-77424819D01*
X154333333Y-77424819D02*
X154571428Y-77424819D01*
X154571428Y-77424819D02*
X154666666Y-77472438D01*
X154666666Y-77472438D02*
X154714285Y-77520057D01*
X154714285Y-77520057D02*
X154761904Y-77615295D01*
X154761904Y-77615295D02*
X154761904Y-77710533D01*
X154761904Y-77710533D02*
X154714285Y-77853390D01*
X154714285Y-77853390D02*
X154142857Y-78424819D01*
X154142857Y-78424819D02*
X154761904Y-78424819D01*
X143238095Y-65104819D02*
X143238095Y-65914342D01*
X143238095Y-65914342D02*
X143285714Y-66009580D01*
X143285714Y-66009580D02*
X143333333Y-66057200D01*
X143333333Y-66057200D02*
X143428571Y-66104819D01*
X143428571Y-66104819D02*
X143619047Y-66104819D01*
X143619047Y-66104819D02*
X143714285Y-66057200D01*
X143714285Y-66057200D02*
X143761904Y-66009580D01*
X143761904Y-66009580D02*
X143809523Y-65914342D01*
X143809523Y-65914342D02*
X143809523Y-65104819D01*
X144809523Y-66104819D02*
X144238095Y-66104819D01*
X144523809Y-66104819D02*
X144523809Y-65104819D01*
X144523809Y-65104819D02*
X144428571Y-65247676D01*
X144428571Y-65247676D02*
X144333333Y-65342914D01*
X144333333Y-65342914D02*
X144238095Y-65390533D01*
X136333333Y-72859580D02*
X136285714Y-72907200D01*
X136285714Y-72907200D02*
X136142857Y-72954819D01*
X136142857Y-72954819D02*
X136047619Y-72954819D01*
X136047619Y-72954819D02*
X135904762Y-72907200D01*
X135904762Y-72907200D02*
X135809524Y-72811961D01*
X135809524Y-72811961D02*
X135761905Y-72716723D01*
X135761905Y-72716723D02*
X135714286Y-72526247D01*
X135714286Y-72526247D02*
X135714286Y-72383390D01*
X135714286Y-72383390D02*
X135761905Y-72192914D01*
X135761905Y-72192914D02*
X135809524Y-72097676D01*
X135809524Y-72097676D02*
X135904762Y-72002438D01*
X135904762Y-72002438D02*
X136047619Y-71954819D01*
X136047619Y-71954819D02*
X136142857Y-71954819D01*
X136142857Y-71954819D02*
X136285714Y-72002438D01*
X136285714Y-72002438D02*
X136333333Y-72050057D01*
X137190476Y-71954819D02*
X137000000Y-71954819D01*
X137000000Y-71954819D02*
X136904762Y-72002438D01*
X136904762Y-72002438D02*
X136857143Y-72050057D01*
X136857143Y-72050057D02*
X136761905Y-72192914D01*
X136761905Y-72192914D02*
X136714286Y-72383390D01*
X136714286Y-72383390D02*
X136714286Y-72764342D01*
X136714286Y-72764342D02*
X136761905Y-72859580D01*
X136761905Y-72859580D02*
X136809524Y-72907200D01*
X136809524Y-72907200D02*
X136904762Y-72954819D01*
X136904762Y-72954819D02*
X137095238Y-72954819D01*
X137095238Y-72954819D02*
X137190476Y-72907200D01*
X137190476Y-72907200D02*
X137238095Y-72859580D01*
X137238095Y-72859580D02*
X137285714Y-72764342D01*
X137285714Y-72764342D02*
X137285714Y-72526247D01*
X137285714Y-72526247D02*
X137238095Y-72431009D01*
X137238095Y-72431009D02*
X137190476Y-72383390D01*
X137190476Y-72383390D02*
X137095238Y-72335771D01*
X137095238Y-72335771D02*
X136904762Y-72335771D01*
X136904762Y-72335771D02*
X136809524Y-72383390D01*
X136809524Y-72383390D02*
X136761905Y-72431009D01*
X136761905Y-72431009D02*
X136714286Y-72526247D01*
X136333333Y-68379580D02*
X136285714Y-68427200D01*
X136285714Y-68427200D02*
X136142857Y-68474819D01*
X136142857Y-68474819D02*
X136047619Y-68474819D01*
X136047619Y-68474819D02*
X135904762Y-68427200D01*
X135904762Y-68427200D02*
X135809524Y-68331961D01*
X135809524Y-68331961D02*
X135761905Y-68236723D01*
X135761905Y-68236723D02*
X135714286Y-68046247D01*
X135714286Y-68046247D02*
X135714286Y-67903390D01*
X135714286Y-67903390D02*
X135761905Y-67712914D01*
X135761905Y-67712914D02*
X135809524Y-67617676D01*
X135809524Y-67617676D02*
X135904762Y-67522438D01*
X135904762Y-67522438D02*
X136047619Y-67474819D01*
X136047619Y-67474819D02*
X136142857Y-67474819D01*
X136142857Y-67474819D02*
X136285714Y-67522438D01*
X136285714Y-67522438D02*
X136333333Y-67570057D01*
X136666667Y-67474819D02*
X137285714Y-67474819D01*
X137285714Y-67474819D02*
X136952381Y-67855771D01*
X136952381Y-67855771D02*
X137095238Y-67855771D01*
X137095238Y-67855771D02*
X137190476Y-67903390D01*
X137190476Y-67903390D02*
X137238095Y-67951009D01*
X137238095Y-67951009D02*
X137285714Y-68046247D01*
X137285714Y-68046247D02*
X137285714Y-68284342D01*
X137285714Y-68284342D02*
X137238095Y-68379580D01*
X137238095Y-68379580D02*
X137190476Y-68427200D01*
X137190476Y-68427200D02*
X137095238Y-68474819D01*
X137095238Y-68474819D02*
X136809524Y-68474819D01*
X136809524Y-68474819D02*
X136714286Y-68427200D01*
X136714286Y-68427200D02*
X136666667Y-68379580D01*
X133083333Y-77359580D02*
X133035714Y-77407200D01*
X133035714Y-77407200D02*
X132892857Y-77454819D01*
X132892857Y-77454819D02*
X132797619Y-77454819D01*
X132797619Y-77454819D02*
X132654762Y-77407200D01*
X132654762Y-77407200D02*
X132559524Y-77311961D01*
X132559524Y-77311961D02*
X132511905Y-77216723D01*
X132511905Y-77216723D02*
X132464286Y-77026247D01*
X132464286Y-77026247D02*
X132464286Y-76883390D01*
X132464286Y-76883390D02*
X132511905Y-76692914D01*
X132511905Y-76692914D02*
X132559524Y-76597676D01*
X132559524Y-76597676D02*
X132654762Y-76502438D01*
X132654762Y-76502438D02*
X132797619Y-76454819D01*
X132797619Y-76454819D02*
X132892857Y-76454819D01*
X132892857Y-76454819D02*
X133035714Y-76502438D01*
X133035714Y-76502438D02*
X133083333Y-76550057D01*
X133654762Y-76883390D02*
X133559524Y-76835771D01*
X133559524Y-76835771D02*
X133511905Y-76788152D01*
X133511905Y-76788152D02*
X133464286Y-76692914D01*
X133464286Y-76692914D02*
X133464286Y-76645295D01*
X133464286Y-76645295D02*
X133511905Y-76550057D01*
X133511905Y-76550057D02*
X133559524Y-76502438D01*
X133559524Y-76502438D02*
X133654762Y-76454819D01*
X133654762Y-76454819D02*
X133845238Y-76454819D01*
X133845238Y-76454819D02*
X133940476Y-76502438D01*
X133940476Y-76502438D02*
X133988095Y-76550057D01*
X133988095Y-76550057D02*
X134035714Y-76645295D01*
X134035714Y-76645295D02*
X134035714Y-76692914D01*
X134035714Y-76692914D02*
X133988095Y-76788152D01*
X133988095Y-76788152D02*
X133940476Y-76835771D01*
X133940476Y-76835771D02*
X133845238Y-76883390D01*
X133845238Y-76883390D02*
X133654762Y-76883390D01*
X133654762Y-76883390D02*
X133559524Y-76931009D01*
X133559524Y-76931009D02*
X133511905Y-76978628D01*
X133511905Y-76978628D02*
X133464286Y-77073866D01*
X133464286Y-77073866D02*
X133464286Y-77264342D01*
X133464286Y-77264342D02*
X133511905Y-77359580D01*
X133511905Y-77359580D02*
X133559524Y-77407200D01*
X133559524Y-77407200D02*
X133654762Y-77454819D01*
X133654762Y-77454819D02*
X133845238Y-77454819D01*
X133845238Y-77454819D02*
X133940476Y-77407200D01*
X133940476Y-77407200D02*
X133988095Y-77359580D01*
X133988095Y-77359580D02*
X134035714Y-77264342D01*
X134035714Y-77264342D02*
X134035714Y-77073866D01*
X134035714Y-77073866D02*
X133988095Y-76978628D01*
X133988095Y-76978628D02*
X133940476Y-76931009D01*
X133940476Y-76931009D02*
X133845238Y-76883390D01*
X148833333Y-87954819D02*
X148500000Y-87478628D01*
X148261905Y-87954819D02*
X148261905Y-86954819D01*
X148261905Y-86954819D02*
X148642857Y-86954819D01*
X148642857Y-86954819D02*
X148738095Y-87002438D01*
X148738095Y-87002438D02*
X148785714Y-87050057D01*
X148785714Y-87050057D02*
X148833333Y-87145295D01*
X148833333Y-87145295D02*
X148833333Y-87288152D01*
X148833333Y-87288152D02*
X148785714Y-87383390D01*
X148785714Y-87383390D02*
X148738095Y-87431009D01*
X148738095Y-87431009D02*
X148642857Y-87478628D01*
X148642857Y-87478628D02*
X148261905Y-87478628D01*
X149738095Y-86954819D02*
X149261905Y-86954819D01*
X149261905Y-86954819D02*
X149214286Y-87431009D01*
X149214286Y-87431009D02*
X149261905Y-87383390D01*
X149261905Y-87383390D02*
X149357143Y-87335771D01*
X149357143Y-87335771D02*
X149595238Y-87335771D01*
X149595238Y-87335771D02*
X149690476Y-87383390D01*
X149690476Y-87383390D02*
X149738095Y-87431009D01*
X149738095Y-87431009D02*
X149785714Y-87526247D01*
X149785714Y-87526247D02*
X149785714Y-87764342D01*
X149785714Y-87764342D02*
X149738095Y-87859580D01*
X149738095Y-87859580D02*
X149690476Y-87907200D01*
X149690476Y-87907200D02*
X149595238Y-87954819D01*
X149595238Y-87954819D02*
X149357143Y-87954819D01*
X149357143Y-87954819D02*
X149261905Y-87907200D01*
X149261905Y-87907200D02*
X149214286Y-87859580D01*
X163704819Y-78166666D02*
X163228628Y-78499999D01*
X163704819Y-78738094D02*
X162704819Y-78738094D01*
X162704819Y-78738094D02*
X162704819Y-78357142D01*
X162704819Y-78357142D02*
X162752438Y-78261904D01*
X162752438Y-78261904D02*
X162800057Y-78214285D01*
X162800057Y-78214285D02*
X162895295Y-78166666D01*
X162895295Y-78166666D02*
X163038152Y-78166666D01*
X163038152Y-78166666D02*
X163133390Y-78214285D01*
X163133390Y-78214285D02*
X163181009Y-78261904D01*
X163181009Y-78261904D02*
X163228628Y-78357142D01*
X163228628Y-78357142D02*
X163228628Y-78738094D01*
X162704819Y-77833332D02*
X162704819Y-77214285D01*
X162704819Y-77214285D02*
X163085771Y-77547618D01*
X163085771Y-77547618D02*
X163085771Y-77404761D01*
X163085771Y-77404761D02*
X163133390Y-77309523D01*
X163133390Y-77309523D02*
X163181009Y-77261904D01*
X163181009Y-77261904D02*
X163276247Y-77214285D01*
X163276247Y-77214285D02*
X163514342Y-77214285D01*
X163514342Y-77214285D02*
X163609580Y-77261904D01*
X163609580Y-77261904D02*
X163657200Y-77309523D01*
X163657200Y-77309523D02*
X163704819Y-77404761D01*
X163704819Y-77404761D02*
X163704819Y-77690475D01*
X163704819Y-77690475D02*
X163657200Y-77785713D01*
X163657200Y-77785713D02*
X163609580Y-77833332D01*
X141823333Y-79859580D02*
X141775714Y-79907200D01*
X141775714Y-79907200D02*
X141632857Y-79954819D01*
X141632857Y-79954819D02*
X141537619Y-79954819D01*
X141537619Y-79954819D02*
X141394762Y-79907200D01*
X141394762Y-79907200D02*
X141299524Y-79811961D01*
X141299524Y-79811961D02*
X141251905Y-79716723D01*
X141251905Y-79716723D02*
X141204286Y-79526247D01*
X141204286Y-79526247D02*
X141204286Y-79383390D01*
X141204286Y-79383390D02*
X141251905Y-79192914D01*
X141251905Y-79192914D02*
X141299524Y-79097676D01*
X141299524Y-79097676D02*
X141394762Y-79002438D01*
X141394762Y-79002438D02*
X141537619Y-78954819D01*
X141537619Y-78954819D02*
X141632857Y-78954819D01*
X141632857Y-78954819D02*
X141775714Y-79002438D01*
X141775714Y-79002438D02*
X141823333Y-79050057D01*
X142299524Y-79954819D02*
X142490000Y-79954819D01*
X142490000Y-79954819D02*
X142585238Y-79907200D01*
X142585238Y-79907200D02*
X142632857Y-79859580D01*
X142632857Y-79859580D02*
X142728095Y-79716723D01*
X142728095Y-79716723D02*
X142775714Y-79526247D01*
X142775714Y-79526247D02*
X142775714Y-79145295D01*
X142775714Y-79145295D02*
X142728095Y-79050057D01*
X142728095Y-79050057D02*
X142680476Y-79002438D01*
X142680476Y-79002438D02*
X142585238Y-78954819D01*
X142585238Y-78954819D02*
X142394762Y-78954819D01*
X142394762Y-78954819D02*
X142299524Y-79002438D01*
X142299524Y-79002438D02*
X142251905Y-79050057D01*
X142251905Y-79050057D02*
X142204286Y-79145295D01*
X142204286Y-79145295D02*
X142204286Y-79383390D01*
X142204286Y-79383390D02*
X142251905Y-79478628D01*
X142251905Y-79478628D02*
X142299524Y-79526247D01*
X142299524Y-79526247D02*
X142394762Y-79573866D01*
X142394762Y-79573866D02*
X142585238Y-79573866D01*
X142585238Y-79573866D02*
X142680476Y-79526247D01*
X142680476Y-79526247D02*
X142728095Y-79478628D01*
X142728095Y-79478628D02*
X142775714Y-79383390D01*
X139333333Y-65859580D02*
X139285714Y-65907200D01*
X139285714Y-65907200D02*
X139142857Y-65954819D01*
X139142857Y-65954819D02*
X139047619Y-65954819D01*
X139047619Y-65954819D02*
X138904762Y-65907200D01*
X138904762Y-65907200D02*
X138809524Y-65811961D01*
X138809524Y-65811961D02*
X138761905Y-65716723D01*
X138761905Y-65716723D02*
X138714286Y-65526247D01*
X138714286Y-65526247D02*
X138714286Y-65383390D01*
X138714286Y-65383390D02*
X138761905Y-65192914D01*
X138761905Y-65192914D02*
X138809524Y-65097676D01*
X138809524Y-65097676D02*
X138904762Y-65002438D01*
X138904762Y-65002438D02*
X139047619Y-64954819D01*
X139047619Y-64954819D02*
X139142857Y-64954819D01*
X139142857Y-64954819D02*
X139285714Y-65002438D01*
X139285714Y-65002438D02*
X139333333Y-65050057D01*
X139714286Y-65050057D02*
X139761905Y-65002438D01*
X139761905Y-65002438D02*
X139857143Y-64954819D01*
X139857143Y-64954819D02*
X140095238Y-64954819D01*
X140095238Y-64954819D02*
X140190476Y-65002438D01*
X140190476Y-65002438D02*
X140238095Y-65050057D01*
X140238095Y-65050057D02*
X140285714Y-65145295D01*
X140285714Y-65145295D02*
X140285714Y-65240533D01*
X140285714Y-65240533D02*
X140238095Y-65383390D01*
X140238095Y-65383390D02*
X139666667Y-65954819D01*
X139666667Y-65954819D02*
X140285714Y-65954819D01*
X127607142Y-76859580D02*
X127559523Y-76907200D01*
X127559523Y-76907200D02*
X127416666Y-76954819D01*
X127416666Y-76954819D02*
X127321428Y-76954819D01*
X127321428Y-76954819D02*
X127178571Y-76907200D01*
X127178571Y-76907200D02*
X127083333Y-76811961D01*
X127083333Y-76811961D02*
X127035714Y-76716723D01*
X127035714Y-76716723D02*
X126988095Y-76526247D01*
X126988095Y-76526247D02*
X126988095Y-76383390D01*
X126988095Y-76383390D02*
X127035714Y-76192914D01*
X127035714Y-76192914D02*
X127083333Y-76097676D01*
X127083333Y-76097676D02*
X127178571Y-76002438D01*
X127178571Y-76002438D02*
X127321428Y-75954819D01*
X127321428Y-75954819D02*
X127416666Y-75954819D01*
X127416666Y-75954819D02*
X127559523Y-76002438D01*
X127559523Y-76002438D02*
X127607142Y-76050057D01*
X128559523Y-76954819D02*
X127988095Y-76954819D01*
X128273809Y-76954819D02*
X128273809Y-75954819D01*
X128273809Y-75954819D02*
X128178571Y-76097676D01*
X128178571Y-76097676D02*
X128083333Y-76192914D01*
X128083333Y-76192914D02*
X127988095Y-76240533D01*
X129511904Y-76954819D02*
X128940476Y-76954819D01*
X129226190Y-76954819D02*
X129226190Y-75954819D01*
X129226190Y-75954819D02*
X129130952Y-76097676D01*
X129130952Y-76097676D02*
X129035714Y-76192914D01*
X129035714Y-76192914D02*
X128940476Y-76240533D01*
X139333333Y-64359580D02*
X139285714Y-64407200D01*
X139285714Y-64407200D02*
X139142857Y-64454819D01*
X139142857Y-64454819D02*
X139047619Y-64454819D01*
X139047619Y-64454819D02*
X138904762Y-64407200D01*
X138904762Y-64407200D02*
X138809524Y-64311961D01*
X138809524Y-64311961D02*
X138761905Y-64216723D01*
X138761905Y-64216723D02*
X138714286Y-64026247D01*
X138714286Y-64026247D02*
X138714286Y-63883390D01*
X138714286Y-63883390D02*
X138761905Y-63692914D01*
X138761905Y-63692914D02*
X138809524Y-63597676D01*
X138809524Y-63597676D02*
X138904762Y-63502438D01*
X138904762Y-63502438D02*
X139047619Y-63454819D01*
X139047619Y-63454819D02*
X139142857Y-63454819D01*
X139142857Y-63454819D02*
X139285714Y-63502438D01*
X139285714Y-63502438D02*
X139333333Y-63550057D01*
X140238095Y-63454819D02*
X139761905Y-63454819D01*
X139761905Y-63454819D02*
X139714286Y-63931009D01*
X139714286Y-63931009D02*
X139761905Y-63883390D01*
X139761905Y-63883390D02*
X139857143Y-63835771D01*
X139857143Y-63835771D02*
X140095238Y-63835771D01*
X140095238Y-63835771D02*
X140190476Y-63883390D01*
X140190476Y-63883390D02*
X140238095Y-63931009D01*
X140238095Y-63931009D02*
X140285714Y-64026247D01*
X140285714Y-64026247D02*
X140285714Y-64264342D01*
X140285714Y-64264342D02*
X140238095Y-64359580D01*
X140238095Y-64359580D02*
X140190476Y-64407200D01*
X140190476Y-64407200D02*
X140095238Y-64454819D01*
X140095238Y-64454819D02*
X139857143Y-64454819D01*
X139857143Y-64454819D02*
X139761905Y-64407200D01*
X139761905Y-64407200D02*
X139714286Y-64359580D01*
X131083333Y-65704819D02*
X130750000Y-65228628D01*
X130511905Y-65704819D02*
X130511905Y-64704819D01*
X130511905Y-64704819D02*
X130892857Y-64704819D01*
X130892857Y-64704819D02*
X130988095Y-64752438D01*
X130988095Y-64752438D02*
X131035714Y-64800057D01*
X131035714Y-64800057D02*
X131083333Y-64895295D01*
X131083333Y-64895295D02*
X131083333Y-65038152D01*
X131083333Y-65038152D02*
X131035714Y-65133390D01*
X131035714Y-65133390D02*
X130988095Y-65181009D01*
X130988095Y-65181009D02*
X130892857Y-65228628D01*
X130892857Y-65228628D02*
X130511905Y-65228628D01*
X132035714Y-65704819D02*
X131464286Y-65704819D01*
X131750000Y-65704819D02*
X131750000Y-64704819D01*
X131750000Y-64704819D02*
X131654762Y-64847676D01*
X131654762Y-64847676D02*
X131559524Y-64942914D01*
X131559524Y-64942914D02*
X131464286Y-64990533D01*
X126128628Y-74226190D02*
X126604819Y-74226190D01*
X125604819Y-74559523D02*
X126128628Y-74226190D01*
X126128628Y-74226190D02*
X125604819Y-73892857D01*
X126604819Y-73035714D02*
X126604819Y-73607142D01*
X126604819Y-73321428D02*
X125604819Y-73321428D01*
X125604819Y-73321428D02*
X125747676Y-73416666D01*
X125747676Y-73416666D02*
X125842914Y-73511904D01*
X125842914Y-73511904D02*
X125890533Y-73607142D01*
X155083333Y-69954819D02*
X154750000Y-69478628D01*
X154511905Y-69954819D02*
X154511905Y-68954819D01*
X154511905Y-68954819D02*
X154892857Y-68954819D01*
X154892857Y-68954819D02*
X154988095Y-69002438D01*
X154988095Y-69002438D02*
X155035714Y-69050057D01*
X155035714Y-69050057D02*
X155083333Y-69145295D01*
X155083333Y-69145295D02*
X155083333Y-69288152D01*
X155083333Y-69288152D02*
X155035714Y-69383390D01*
X155035714Y-69383390D02*
X154988095Y-69431009D01*
X154988095Y-69431009D02*
X154892857Y-69478628D01*
X154892857Y-69478628D02*
X154511905Y-69478628D01*
X155464286Y-69050057D02*
X155511905Y-69002438D01*
X155511905Y-69002438D02*
X155607143Y-68954819D01*
X155607143Y-68954819D02*
X155845238Y-68954819D01*
X155845238Y-68954819D02*
X155940476Y-69002438D01*
X155940476Y-69002438D02*
X155988095Y-69050057D01*
X155988095Y-69050057D02*
X156035714Y-69145295D01*
X156035714Y-69145295D02*
X156035714Y-69240533D01*
X156035714Y-69240533D02*
X155988095Y-69383390D01*
X155988095Y-69383390D02*
X155416667Y-69954819D01*
X155416667Y-69954819D02*
X156035714Y-69954819D01*
X138666666Y-76931009D02*
X138333333Y-76931009D01*
X138333333Y-77454819D02*
X138333333Y-76454819D01*
X138333333Y-76454819D02*
X138809523Y-76454819D01*
X139523809Y-76931009D02*
X139666666Y-76978628D01*
X139666666Y-76978628D02*
X139714285Y-77026247D01*
X139714285Y-77026247D02*
X139761904Y-77121485D01*
X139761904Y-77121485D02*
X139761904Y-77264342D01*
X139761904Y-77264342D02*
X139714285Y-77359580D01*
X139714285Y-77359580D02*
X139666666Y-77407200D01*
X139666666Y-77407200D02*
X139571428Y-77454819D01*
X139571428Y-77454819D02*
X139190476Y-77454819D01*
X139190476Y-77454819D02*
X139190476Y-76454819D01*
X139190476Y-76454819D02*
X139523809Y-76454819D01*
X139523809Y-76454819D02*
X139619047Y-76502438D01*
X139619047Y-76502438D02*
X139666666Y-76550057D01*
X139666666Y-76550057D02*
X139714285Y-76645295D01*
X139714285Y-76645295D02*
X139714285Y-76740533D01*
X139714285Y-76740533D02*
X139666666Y-76835771D01*
X139666666Y-76835771D02*
X139619047Y-76883390D01*
X139619047Y-76883390D02*
X139523809Y-76931009D01*
X139523809Y-76931009D02*
X139190476Y-76931009D01*
X140714285Y-77454819D02*
X140142857Y-77454819D01*
X140428571Y-77454819D02*
X140428571Y-76454819D01*
X140428571Y-76454819D02*
X140333333Y-76597676D01*
X140333333Y-76597676D02*
X140238095Y-76692914D01*
X140238095Y-76692914D02*
X140142857Y-76740533D01*
D12*
%TO.C,C13*%
X160015000Y-82711252D02*
X160015000Y-82188748D01*
X161485000Y-82711252D02*
X161485000Y-82188748D01*
%TO.C,R4*%
X142653641Y-87120000D02*
X142346359Y-87120000D01*
X142653641Y-87880000D02*
X142346359Y-87880000D01*
%TO.C,U2*%
X152090000Y-83550000D02*
X152090000Y-87310000D01*
X152090000Y-87310000D02*
X153350000Y-87310000D01*
X158910000Y-83550000D02*
X158910000Y-87310000D01*
X158910000Y-87310000D02*
X157650000Y-87310000D01*
X159140000Y-82510000D02*
X158810000Y-82270000D01*
X159140000Y-82030000D01*
X159140000Y-82510000D01*
G36*
X159140000Y-82510000D02*
G01*
X158810000Y-82270000D01*
X159140000Y-82030000D01*
X159140000Y-82510000D01*
G37*
%TO.C,D1*%
X165570000Y-76765000D02*
X165570000Y-79050000D01*
X167040000Y-76765000D02*
X165570000Y-76765000D01*
X167040000Y-79050000D02*
X167040000Y-76765000D01*
%TO.C,J2*%
X150040000Y-56880000D02*
X150040000Y-55500000D01*
X151420000Y-56880000D02*
X150040000Y-56880000D01*
X152690000Y-54120000D02*
X160420000Y-54120000D01*
X152690000Y-56880000D02*
X152690000Y-54120000D01*
X152690000Y-56880000D02*
X160420000Y-56880000D01*
X160420000Y-56880000D02*
X160420000Y-54120000D01*
%TO.C,C10*%
X130640000Y-72877836D02*
X130640000Y-72662164D01*
X131360000Y-72877836D02*
X131360000Y-72662164D01*
%TO.C,C1*%
X149640000Y-68892164D02*
X149640000Y-69107836D01*
X150360000Y-68892164D02*
X150360000Y-69107836D01*
%TO.C,C4*%
X147890000Y-77142164D02*
X147890000Y-77357836D01*
X148610000Y-77142164D02*
X148610000Y-77357836D01*
%TO.C,J3*%
X138500000Y-92130000D02*
X138500000Y-90750000D01*
X139880000Y-92130000D02*
X138500000Y-92130000D01*
X141150000Y-89370000D02*
X148880000Y-89370000D01*
X141150000Y-92130000D02*
X141150000Y-89370000D01*
X141150000Y-92130000D02*
X148880000Y-92130000D01*
X148880000Y-92130000D02*
X148880000Y-89370000D01*
%TO.C,C7*%
X135317836Y-75140000D02*
X135102164Y-75140000D01*
X135317836Y-75860000D02*
X135102164Y-75860000D01*
%TO.C,SW1*%
X126100000Y-63900000D02*
X126100000Y-69600000D01*
X127110000Y-70200000D02*
X127900000Y-70200000D01*
X127900000Y-63300000D02*
X127110000Y-63300000D01*
X128950000Y-65150000D02*
X128950000Y-66850000D01*
X128950000Y-68150000D02*
X128950000Y-68350000D01*
%TO.C,C12*%
X153238748Y-78915000D02*
X153761252Y-78915000D01*
X153238748Y-80385000D02*
X153761252Y-80385000D01*
%TO.C,U1*%
X140390000Y-67890000D02*
X140840000Y-67890000D01*
X140390000Y-68340000D02*
X140390000Y-67890000D01*
X140390000Y-75110000D02*
X140390000Y-74660000D01*
X140840000Y-75110000D02*
X140390000Y-75110000D01*
X147160000Y-67890000D02*
X147610000Y-67890000D01*
X147610000Y-67890000D02*
X147610000Y-68340000D01*
X147610000Y-74660000D02*
X147610000Y-75110000D01*
X147610000Y-75110000D02*
X147160000Y-75110000D01*
X139750000Y-68340000D02*
X139410000Y-67870000D01*
X140090000Y-67870000D01*
X139750000Y-68340000D01*
G36*
X139750000Y-68340000D02*
G01*
X139410000Y-67870000D01*
X140090000Y-67870000D01*
X139750000Y-68340000D01*
G37*
%TO.C,C6*%
X137640000Y-72607836D02*
X137640000Y-72392164D01*
X138360000Y-72607836D02*
X138360000Y-72392164D01*
D13*
%TO.C,G\u002A\u002A\u002A*%
G36*
X131350569Y-83520219D02*
G01*
X131361754Y-83542328D01*
X131368240Y-83572594D01*
X131369230Y-83591321D01*
X131366051Y-83615185D01*
X131357740Y-83629366D01*
X131346136Y-83630898D01*
X131345034Y-83630336D01*
X131339964Y-83620794D01*
X131335839Y-83602100D01*
X131335489Y-83599417D01*
X131331541Y-83578727D01*
X131326793Y-83572506D01*
X131321893Y-83581456D01*
X131321222Y-83584000D01*
X131314368Y-83594642D01*
X131310417Y-83596000D01*
X131304608Y-83589621D01*
X131302770Y-83573677D01*
X131304338Y-83552950D01*
X131308748Y-83532226D01*
X131315436Y-83516290D01*
X131320447Y-83510932D01*
X131336271Y-83508883D01*
X131350569Y-83520219D01*
G37*
G36*
X128997390Y-79751064D02*
G01*
X129011509Y-79763819D01*
X129021732Y-79782275D01*
X129027145Y-79801819D01*
X129028149Y-79821841D01*
X129028150Y-79855893D01*
X129027222Y-79902096D01*
X129025440Y-79958567D01*
X129022881Y-80023428D01*
X129019620Y-80094798D01*
X129015732Y-80170795D01*
X129011292Y-80249540D01*
X129006376Y-80329152D01*
X129005409Y-80344000D01*
X129000986Y-80414122D01*
X128996592Y-80488897D01*
X128992458Y-80564014D01*
X128988814Y-80635163D01*
X128985891Y-80698032D01*
X128984281Y-80738024D01*
X128982772Y-80791693D01*
X128981609Y-80858492D01*
X128980779Y-80936319D01*
X128980270Y-81023073D01*
X128980067Y-81116652D01*
X128980159Y-81214954D01*
X128980532Y-81315879D01*
X128981174Y-81417324D01*
X128982071Y-81517189D01*
X128983211Y-81613373D01*
X128984581Y-81703772D01*
X128986167Y-81786287D01*
X128987957Y-81858816D01*
X128989939Y-81919258D01*
X128991787Y-81960000D01*
X129005924Y-82199083D01*
X129021617Y-82424848D01*
X129039162Y-82639854D01*
X129058852Y-82846662D01*
X129080981Y-83047830D01*
X129105844Y-83245918D01*
X129133734Y-83443486D01*
X129164945Y-83643094D01*
X129199771Y-83847302D01*
X129223799Y-83980000D01*
X129259197Y-84164895D01*
X129295091Y-84338576D01*
X129332559Y-84505802D01*
X129372676Y-84671334D01*
X129416521Y-84839932D01*
X129427531Y-84880694D01*
X129466875Y-85025388D01*
X129739847Y-85030584D01*
X129801300Y-85031872D01*
X129867384Y-85033467D01*
X129935882Y-85035303D01*
X130004576Y-85037313D01*
X130071248Y-85039430D01*
X130133681Y-85041587D01*
X130189655Y-85043718D01*
X130224384Y-85045184D01*
X130269975Y-85047093D01*
X130312342Y-85048644D01*
X130350395Y-85049812D01*
X130383047Y-85050574D01*
X130409207Y-85050907D01*
X130427787Y-85050787D01*
X130437698Y-85050193D01*
X130439041Y-85049761D01*
X130438986Y-85040704D01*
X130436789Y-85018930D01*
X130432790Y-84987245D01*
X130427333Y-84948455D01*
X130424040Y-84926467D01*
X130402641Y-84778795D01*
X130384401Y-84635704D01*
X130368860Y-84492733D01*
X130355558Y-84345426D01*
X130344037Y-84189323D01*
X130337817Y-84090072D01*
X130334670Y-84026336D01*
X130331868Y-83948856D01*
X130329428Y-83859880D01*
X130327370Y-83761654D01*
X130325711Y-83656427D01*
X130324471Y-83546446D01*
X130323667Y-83433959D01*
X130323611Y-83415935D01*
X130411303Y-83415935D01*
X130411603Y-83523359D01*
X130412509Y-83619526D01*
X130414054Y-83702833D01*
X130414976Y-83736000D01*
X130423026Y-83934828D01*
X130434594Y-84133888D01*
X130449419Y-84330189D01*
X130467240Y-84520741D01*
X130487797Y-84702554D01*
X130510828Y-84872638D01*
X130518467Y-84922760D01*
X130526208Y-84971893D01*
X130532160Y-85007634D01*
X130537026Y-85032113D01*
X130541505Y-85047459D01*
X130546299Y-85055803D01*
X130552109Y-85059273D01*
X130559636Y-85060000D01*
X130563630Y-85060000D01*
X130578414Y-85057674D01*
X130585562Y-85049779D01*
X130586579Y-85046000D01*
X130589463Y-85027058D01*
X130593469Y-84995686D01*
X130598220Y-84955282D01*
X130603341Y-84909243D01*
X130608454Y-84860969D01*
X130613183Y-84813856D01*
X130617154Y-84771304D01*
X130617793Y-84764000D01*
X130625463Y-84662130D01*
X130632180Y-84546253D01*
X130637904Y-84418296D01*
X130642594Y-84280188D01*
X130646210Y-84133857D01*
X130648712Y-83981233D01*
X130650058Y-83824243D01*
X130650209Y-83664816D01*
X130649125Y-83504881D01*
X130647105Y-83364626D01*
X130643608Y-83190958D01*
X130639407Y-83015171D01*
X130634556Y-82838429D01*
X130629111Y-82661893D01*
X130623125Y-82486724D01*
X130616655Y-82314085D01*
X130609755Y-82145136D01*
X130602480Y-81981040D01*
X130594885Y-81822959D01*
X130587024Y-81672054D01*
X130578953Y-81529487D01*
X130570727Y-81396420D01*
X130562401Y-81274014D01*
X130554029Y-81163431D01*
X130545666Y-81065833D01*
X130537367Y-80982382D01*
X130532493Y-80940000D01*
X130527684Y-80901432D01*
X130524277Y-80876915D01*
X130521843Y-80864753D01*
X130519954Y-80863253D01*
X130518182Y-80870721D01*
X130517005Y-80878737D01*
X130514799Y-80897570D01*
X130511426Y-80929935D01*
X130507101Y-80973508D01*
X130502039Y-81025966D01*
X130496456Y-81084987D01*
X130490567Y-81148248D01*
X130484587Y-81213426D01*
X130478731Y-81278199D01*
X130473214Y-81340243D01*
X130468252Y-81397235D01*
X130464059Y-81446854D01*
X130461808Y-81474559D01*
X130456930Y-81544038D01*
X130452126Y-81627913D01*
X130447430Y-81724581D01*
X130442876Y-81832438D01*
X130438495Y-81949883D01*
X130434322Y-82075311D01*
X130430389Y-82207118D01*
X130426730Y-82343703D01*
X130423379Y-82483460D01*
X130420367Y-82624788D01*
X130417729Y-82766082D01*
X130415498Y-82905739D01*
X130413707Y-83042156D01*
X130412388Y-83173730D01*
X130411576Y-83298858D01*
X130411303Y-83415935D01*
X130323611Y-83415935D01*
X130323318Y-83321213D01*
X130323442Y-83210456D01*
X130324058Y-83103935D01*
X130325184Y-83003899D01*
X130326839Y-82912595D01*
X130327840Y-82872000D01*
X130329929Y-82800580D01*
X130332546Y-82719761D01*
X130335623Y-82631157D01*
X130339089Y-82536383D01*
X130342876Y-82437054D01*
X130346913Y-82334785D01*
X130351132Y-82231190D01*
X130355464Y-82127885D01*
X130359838Y-82026484D01*
X130364186Y-81928601D01*
X130368438Y-81835852D01*
X130372524Y-81749852D01*
X130376376Y-81672215D01*
X130379924Y-81604556D01*
X130383099Y-81548490D01*
X130385831Y-81505632D01*
X130387472Y-81484000D01*
X130391477Y-81440910D01*
X130396899Y-81388468D01*
X130403495Y-81328571D01*
X130411025Y-81263115D01*
X130419246Y-81193997D01*
X130427916Y-81123114D01*
X130436795Y-81052361D01*
X130445640Y-80983637D01*
X130454210Y-80918836D01*
X130462262Y-80859857D01*
X130469555Y-80808595D01*
X130475848Y-80766948D01*
X130480898Y-80736811D01*
X130484464Y-80720081D01*
X130485068Y-80718281D01*
X130499405Y-80695534D01*
X130516803Y-80686740D01*
X130535263Y-80691939D01*
X130552786Y-80711169D01*
X130556113Y-80716908D01*
X130567224Y-80745600D01*
X130578223Y-80790237D01*
X130589107Y-80850767D01*
X130599871Y-80927137D01*
X130610512Y-81019293D01*
X130621025Y-81127182D01*
X130631407Y-81250752D01*
X130641654Y-81389948D01*
X130651762Y-81544718D01*
X130661727Y-81715008D01*
X130671545Y-81900766D01*
X130681213Y-82101937D01*
X130690725Y-82318470D01*
X130700080Y-82550310D01*
X130709272Y-82797405D01*
X130710077Y-82820000D01*
X130714701Y-82954446D01*
X130718530Y-83076344D01*
X130721613Y-83188987D01*
X130723998Y-83295665D01*
X130725734Y-83399671D01*
X130726869Y-83504297D01*
X130727453Y-83612833D01*
X130727532Y-83728572D01*
X130727156Y-83854805D01*
X130726674Y-83946798D01*
X130725762Y-84076698D01*
X130724614Y-84192421D01*
X130723156Y-84295788D01*
X130721312Y-84388621D01*
X130719010Y-84472741D01*
X130716174Y-84549968D01*
X130712730Y-84622125D01*
X130708603Y-84691033D01*
X130703719Y-84758512D01*
X130698004Y-84826384D01*
X130691383Y-84896470D01*
X130685481Y-84954426D01*
X130673808Y-85066131D01*
X130733058Y-85071047D01*
X130761976Y-85073232D01*
X130799197Y-85075715D01*
X130842768Y-85078393D01*
X130890741Y-85081163D01*
X130941163Y-85083923D01*
X130992083Y-85086570D01*
X131041551Y-85088999D01*
X131087616Y-85091110D01*
X131128326Y-85092798D01*
X131161731Y-85093961D01*
X131173147Y-85094269D01*
X131202599Y-85094719D01*
X131223314Y-85094309D01*
X131236802Y-85092833D01*
X131244574Y-85090086D01*
X131248140Y-85085862D01*
X131248674Y-85084000D01*
X131250595Y-85070379D01*
X131253358Y-85046127D01*
X131256370Y-85016455D01*
X131256413Y-85016000D01*
X131262778Y-84956777D01*
X131269232Y-84912549D01*
X131276073Y-84882317D01*
X131283598Y-84865079D01*
X131292106Y-84859834D01*
X131301282Y-84864963D01*
X131306103Y-84872519D01*
X131308502Y-84885593D01*
X131308920Y-84908143D01*
X131308381Y-84928536D01*
X131306308Y-84962244D01*
X131302819Y-84994491D01*
X131299407Y-85014619D01*
X131294672Y-85042812D01*
X131292354Y-85070858D01*
X131292307Y-85074313D01*
X131292307Y-85102614D01*
X131603846Y-85097058D01*
X131659821Y-85095988D01*
X131713029Y-85094833D01*
X131762534Y-85093622D01*
X131807401Y-85092385D01*
X131846696Y-85091150D01*
X131879484Y-85089947D01*
X131904831Y-85088807D01*
X131921800Y-85087757D01*
X131929459Y-85086827D01*
X131929487Y-85086818D01*
X131931110Y-85086279D01*
X132020512Y-85086279D01*
X132052034Y-85081139D01*
X132073320Y-85078585D01*
X132099381Y-85076745D01*
X132124738Y-85076001D01*
X132125808Y-85076000D01*
X132168061Y-85076000D01*
X132170123Y-85070533D01*
X132260128Y-85070533D01*
X132300068Y-85065266D01*
X132324162Y-85062602D01*
X132348714Y-85060708D01*
X132368131Y-85060000D01*
X132396254Y-85060000D01*
X132381460Y-85042428D01*
X132370095Y-85028361D01*
X132354316Y-85008127D01*
X132337471Y-84986019D01*
X132336901Y-84985262D01*
X132322182Y-84967196D01*
X132310393Y-84955540D01*
X132303638Y-84952309D01*
X132303087Y-84952833D01*
X132298819Y-84962898D01*
X132291178Y-84983075D01*
X132281659Y-85009391D01*
X132279582Y-85015266D01*
X132260128Y-85070533D01*
X132170123Y-85070533D01*
X132188427Y-85022000D01*
X132200999Y-84987969D01*
X132215496Y-84947697D01*
X132229071Y-84909105D01*
X132230873Y-84903889D01*
X132243038Y-84868570D01*
X132331675Y-84868570D01*
X132349171Y-84896890D01*
X132368380Y-84924495D01*
X132393728Y-84955992D01*
X132422232Y-84987954D01*
X132450912Y-85016951D01*
X132464102Y-85029019D01*
X132477614Y-85040386D01*
X132489249Y-85048210D01*
X132501578Y-85053343D01*
X132517173Y-85056638D01*
X132538607Y-85058948D01*
X132558974Y-85060470D01*
X132583369Y-85062281D01*
X132603666Y-85063995D01*
X132617882Y-85065430D01*
X132624035Y-85066404D01*
X132624131Y-85066470D01*
X132623214Y-85060719D01*
X132619685Y-85044398D01*
X132617311Y-85034000D01*
X132613124Y-85015674D01*
X132606252Y-84985314D01*
X132597387Y-84945995D01*
X132587224Y-84900791D01*
X132576765Y-84854162D01*
X132553731Y-84753562D01*
X132531250Y-84659683D01*
X132509868Y-84574698D01*
X132490132Y-84500779D01*
X132472589Y-84440101D01*
X132472558Y-84440000D01*
X132453037Y-84376000D01*
X132436375Y-84459259D01*
X132418974Y-84540668D01*
X132398468Y-84627592D01*
X132376552Y-84713158D01*
X132354921Y-84790492D01*
X132353254Y-84796117D01*
X132331675Y-84868570D01*
X132243038Y-84868570D01*
X132252954Y-84839779D01*
X132229365Y-84775889D01*
X132194805Y-84672029D01*
X132169066Y-84570229D01*
X132151517Y-84466793D01*
X132141527Y-84358028D01*
X132139181Y-84270745D01*
X132185134Y-84270745D01*
X132186625Y-84324177D01*
X132190002Y-84375719D01*
X132192002Y-84396000D01*
X132205537Y-84492963D01*
X132223944Y-84585339D01*
X132246348Y-84669265D01*
X132267612Y-84730387D01*
X132278688Y-84758344D01*
X132290929Y-84715172D01*
X132297410Y-84691103D01*
X132306304Y-84656434D01*
X132316496Y-84615586D01*
X132326868Y-84572981D01*
X132328063Y-84568000D01*
X132339162Y-84519421D01*
X132351415Y-84462211D01*
X132363395Y-84403224D01*
X132373677Y-84349312D01*
X132374452Y-84345043D01*
X132382955Y-84297956D01*
X132388642Y-84263087D01*
X132391208Y-84237233D01*
X132476411Y-84237233D01*
X132488901Y-84270616D01*
X132500733Y-84303988D01*
X132515445Y-84348099D01*
X132531815Y-84399025D01*
X132548620Y-84452839D01*
X132564640Y-84505615D01*
X132578653Y-84553429D01*
X132589438Y-84592354D01*
X132591588Y-84600636D01*
X132598887Y-84630039D01*
X132608820Y-84671093D01*
X132620573Y-84720381D01*
X132633335Y-84774485D01*
X132646290Y-84829986D01*
X132650610Y-84848636D01*
X132662461Y-84899810D01*
X132673435Y-84947033D01*
X132682961Y-84987854D01*
X132690466Y-85019819D01*
X132695376Y-85040479D01*
X132696728Y-85046000D01*
X132700601Y-85058211D01*
X132706217Y-85064803D01*
X132716442Y-85067494D01*
X132733452Y-85068000D01*
X132753338Y-85066550D01*
X132768641Y-85060552D01*
X132784655Y-85047534D01*
X132791271Y-85040999D01*
X132828760Y-84993667D01*
X132860211Y-84934258D01*
X132885189Y-84864099D01*
X132903257Y-84784515D01*
X132913980Y-84696834D01*
X132916039Y-84661639D01*
X132916938Y-84610802D01*
X132916120Y-84548435D01*
X132913772Y-84478724D01*
X132910085Y-84405860D01*
X132905247Y-84334032D01*
X132899450Y-84267428D01*
X132897239Y-84246218D01*
X132879660Y-84112319D01*
X132856185Y-83975095D01*
X132827558Y-83837438D01*
X132794520Y-83702243D01*
X132757815Y-83572406D01*
X132718185Y-83450819D01*
X132676372Y-83340378D01*
X132648240Y-83275648D01*
X132635490Y-83249409D01*
X132619634Y-83218835D01*
X132602014Y-83186279D01*
X132583976Y-83154092D01*
X132566863Y-83124628D01*
X132552019Y-83100237D01*
X132540789Y-83083273D01*
X132534516Y-83076086D01*
X132534152Y-83075993D01*
X132533324Y-83083648D01*
X132532690Y-83105249D01*
X132532267Y-83138746D01*
X132532071Y-83182087D01*
X132532117Y-83233220D01*
X132532422Y-83290096D01*
X132532451Y-83293993D01*
X132532475Y-83456464D01*
X132529838Y-83606098D01*
X132524408Y-83745562D01*
X132516055Y-83877525D01*
X132504646Y-84004655D01*
X132491978Y-84114616D01*
X132476411Y-84237233D01*
X132391208Y-84237233D01*
X132391217Y-84237144D01*
X132390379Y-84216837D01*
X132385833Y-84198873D01*
X132377280Y-84179960D01*
X132364422Y-84156807D01*
X132356106Y-84142297D01*
X132325741Y-84095066D01*
X132297269Y-84062813D01*
X132270909Y-84045584D01*
X132246883Y-84043426D01*
X132225410Y-84056385D01*
X132206712Y-84084507D01*
X132196840Y-84108900D01*
X132191383Y-84134500D01*
X132187573Y-84172367D01*
X132185470Y-84218962D01*
X132185134Y-84270745D01*
X132139181Y-84270745D01*
X132138461Y-84243957D01*
X132138993Y-84187941D01*
X132140910Y-84144435D01*
X132144697Y-84110010D01*
X132150839Y-84081239D01*
X132159819Y-84054693D01*
X132167822Y-84036101D01*
X132188745Y-83999206D01*
X132212204Y-83976265D01*
X132240467Y-83965479D01*
X132258718Y-83964078D01*
X132289287Y-83967970D01*
X132316801Y-83980625D01*
X132343618Y-84003723D01*
X132372098Y-84038944D01*
X132380375Y-84050746D01*
X132413776Y-84099488D01*
X132422139Y-84025744D01*
X132431235Y-83935094D01*
X132439394Y-83832915D01*
X132446295Y-83723648D01*
X132451115Y-83624136D01*
X132452602Y-83579139D01*
X132453810Y-83524435D01*
X132454735Y-83462701D01*
X132455372Y-83396616D01*
X132455718Y-83328859D01*
X132455766Y-83262107D01*
X132455514Y-83199040D01*
X132454957Y-83142335D01*
X132454090Y-83094672D01*
X132452910Y-83058729D01*
X132452056Y-83044000D01*
X132448717Y-83000000D01*
X132409689Y-83000902D01*
X132369107Y-83008321D01*
X132332679Y-83029326D01*
X132298547Y-83065047D01*
X132293966Y-83071123D01*
X132261802Y-83123530D01*
X132230868Y-83191491D01*
X132201267Y-83274653D01*
X132173105Y-83372666D01*
X132146485Y-83485180D01*
X132121512Y-83611843D01*
X132105825Y-83704000D01*
X132090679Y-83803788D01*
X132077849Y-83901033D01*
X132067070Y-83998750D01*
X132058078Y-84099960D01*
X132050610Y-84207681D01*
X132044401Y-84324930D01*
X132039188Y-84454727D01*
X132038561Y-84472908D01*
X132036232Y-84541248D01*
X132033771Y-84612581D01*
X132031317Y-84682972D01*
X132029007Y-84748481D01*
X132026979Y-84805173D01*
X132025626Y-84842269D01*
X132023892Y-84892316D01*
X132022409Y-84941102D01*
X132021287Y-84984568D01*
X132020634Y-85018660D01*
X132020512Y-85033408D01*
X132020512Y-85086279D01*
X131931110Y-85086279D01*
X131943589Y-85082134D01*
X131943600Y-85033408D01*
X131943612Y-84977067D01*
X131943859Y-84940713D01*
X131944561Y-84889930D01*
X131945678Y-84826273D01*
X131947171Y-84751294D01*
X131949000Y-84666547D01*
X131951125Y-84573585D01*
X131953507Y-84473961D01*
X131956106Y-84369228D01*
X131958882Y-84260941D01*
X131961795Y-84150651D01*
X131964806Y-84039913D01*
X131967875Y-83930279D01*
X131970963Y-83823303D01*
X131974029Y-83720538D01*
X131977034Y-83623537D01*
X131979939Y-83533854D01*
X131980410Y-83520000D01*
X132066289Y-83520000D01*
X132084662Y-83436000D01*
X132094916Y-83392494D01*
X132107937Y-83342079D01*
X132121789Y-83292065D01*
X132130757Y-83261818D01*
X132144165Y-83220153D01*
X132158937Y-83177379D01*
X132173082Y-83139119D01*
X132182527Y-83115722D01*
X132203057Y-83073272D01*
X132227696Y-83030539D01*
X132254096Y-82991041D01*
X132279907Y-82958299D01*
X132302475Y-82936069D01*
X132333326Y-82916436D01*
X132368525Y-82901485D01*
X132402960Y-82893173D01*
X132417257Y-82892118D01*
X132442207Y-82892000D01*
X132438665Y-82846000D01*
X132428396Y-82730523D01*
X132415281Y-82612102D01*
X132399652Y-82492398D01*
X132381842Y-82373077D01*
X132362184Y-82255802D01*
X132341010Y-82142238D01*
X132318652Y-82034049D01*
X132295443Y-81932899D01*
X132271716Y-81840453D01*
X132247804Y-81758374D01*
X132224038Y-81688326D01*
X132200751Y-81631975D01*
X132192882Y-81616000D01*
X132184350Y-81601728D01*
X132178509Y-81595825D01*
X132177699Y-81596171D01*
X132175150Y-81605254D01*
X132170634Y-81625992D01*
X132164948Y-81654635D01*
X132162305Y-81668647D01*
X132150821Y-81740365D01*
X132140196Y-81826827D01*
X132130531Y-81926818D01*
X132121932Y-82039125D01*
X132114501Y-82162534D01*
X132108341Y-82295832D01*
X132107863Y-82308000D01*
X132106480Y-82344722D01*
X132104629Y-82395392D01*
X132102380Y-82457979D01*
X132099805Y-82530453D01*
X132096973Y-82610783D01*
X132093954Y-82696939D01*
X132090820Y-82786891D01*
X132087639Y-82878607D01*
X132084483Y-82970059D01*
X132081421Y-83059215D01*
X132078525Y-83144045D01*
X132075864Y-83222518D01*
X132073508Y-83292605D01*
X132071529Y-83352274D01*
X132069995Y-83399496D01*
X132069226Y-83424000D01*
X132066289Y-83520000D01*
X131980410Y-83520000D01*
X131982178Y-83468000D01*
X131986725Y-83341423D01*
X131991596Y-83212818D01*
X131996721Y-83083690D01*
X132002030Y-82955543D01*
X132007453Y-82829881D01*
X132012918Y-82708210D01*
X132018356Y-82592033D01*
X132023697Y-82482855D01*
X132028869Y-82382181D01*
X132033802Y-82291516D01*
X132038427Y-82212364D01*
X132042672Y-82146229D01*
X132046357Y-82096000D01*
X132054960Y-81999653D01*
X132064849Y-81907631D01*
X132075771Y-81821374D01*
X132087475Y-81742321D01*
X132099709Y-81671914D01*
X132112220Y-81611592D01*
X132124758Y-81562795D01*
X132137071Y-81526964D01*
X132148905Y-81505540D01*
X132149790Y-81504528D01*
X132169156Y-81492070D01*
X132190009Y-81494995D01*
X132212174Y-81512901D01*
X132235479Y-81545382D01*
X132259749Y-81592034D01*
X132284810Y-81652451D01*
X132310490Y-81726230D01*
X132336615Y-81812966D01*
X132363011Y-81912253D01*
X132389504Y-82023689D01*
X132407022Y-82104000D01*
X132427067Y-82205761D01*
X132446750Y-82318404D01*
X132465408Y-82437330D01*
X132482377Y-82557942D01*
X132496994Y-82675639D01*
X132508597Y-82785825D01*
X132513553Y-82842816D01*
X132520103Y-82925632D01*
X132556205Y-82968106D01*
X132611783Y-83042133D01*
X132665559Y-83131008D01*
X132717061Y-83233717D01*
X132765817Y-83349244D01*
X132811355Y-83476573D01*
X132848028Y-83596299D01*
X132889923Y-83753770D01*
X132924008Y-83905169D01*
X132950823Y-84053714D01*
X132970907Y-84202623D01*
X132984800Y-84355118D01*
X132990112Y-84444000D01*
X132993655Y-84554751D01*
X132992499Y-84653023D01*
X132986365Y-84740770D01*
X132974976Y-84819951D01*
X132958053Y-84892522D01*
X132935318Y-84960440D01*
X132907723Y-85023167D01*
X132894647Y-85050276D01*
X132888353Y-85067357D01*
X132889513Y-85077232D01*
X132898797Y-85082721D01*
X132916876Y-85086646D01*
X132923076Y-85087754D01*
X132979021Y-85101461D01*
X133040058Y-85122875D01*
X133102885Y-85150509D01*
X133164203Y-85182870D01*
X133220712Y-85218470D01*
X133234759Y-85228475D01*
X133294671Y-85277264D01*
X133350298Y-85332230D01*
X133400655Y-85391970D01*
X133444755Y-85455077D01*
X133481614Y-85520148D01*
X133510244Y-85585777D01*
X133529074Y-85648000D01*
X133535248Y-85686021D01*
X133539246Y-85734460D01*
X133540972Y-85788066D01*
X133540326Y-85841587D01*
X133537212Y-85889773D01*
X133534035Y-85914442D01*
X133519651Y-85971355D01*
X133496767Y-86024066D01*
X133467107Y-86069707D01*
X133432394Y-86105409D01*
X133410256Y-86120640D01*
X133388340Y-86129210D01*
X133359246Y-86135126D01*
X133325932Y-86138175D01*
X133291355Y-86138150D01*
X133258473Y-86134840D01*
X133245485Y-86132330D01*
X133174457Y-86108141D01*
X133105856Y-86068921D01*
X133040705Y-86015489D01*
X132980027Y-85948664D01*
X132932839Y-85882112D01*
X132896064Y-85820215D01*
X132857939Y-85749017D01*
X132821185Y-85673903D01*
X132788519Y-85600261D01*
X132779723Y-85578758D01*
X132764097Y-85538031D01*
X132746692Y-85489919D01*
X132728600Y-85437724D01*
X132710915Y-85384746D01*
X132694731Y-85334288D01*
X132681142Y-85289650D01*
X132671240Y-85254134D01*
X132668518Y-85243049D01*
X132659996Y-85206099D01*
X132619839Y-85200875D01*
X132594750Y-85195988D01*
X132583276Y-85192650D01*
X132733553Y-85192650D01*
X132765974Y-85296325D01*
X132813806Y-85438805D01*
X132863684Y-85566575D01*
X132916090Y-85680735D01*
X132971509Y-85782389D01*
X132997334Y-85824000D01*
X133040538Y-85885529D01*
X133083122Y-85934522D01*
X133127729Y-85973605D01*
X133177005Y-86005410D01*
X133183270Y-86008815D01*
X133239192Y-86034077D01*
X133291294Y-86048346D01*
X133338555Y-86051470D01*
X133379957Y-86043301D01*
X133389571Y-86039338D01*
X133417090Y-86019240D01*
X133442707Y-85987215D01*
X133463830Y-85947298D01*
X133477865Y-85903527D01*
X133478381Y-85901081D01*
X133482979Y-85868183D01*
X133485862Y-85825973D01*
X133487001Y-85779499D01*
X133486362Y-85733811D01*
X133483916Y-85693957D01*
X133479837Y-85665871D01*
X133459392Y-85598920D01*
X133429590Y-85533901D01*
X133391305Y-85471577D01*
X133345409Y-85412707D01*
X133292775Y-85358056D01*
X133234274Y-85308384D01*
X133170782Y-85264453D01*
X133103168Y-85227025D01*
X133032308Y-85196862D01*
X132959072Y-85174725D01*
X132905128Y-85164150D01*
X132867642Y-85159144D01*
X132838124Y-85156962D01*
X132814427Y-85157763D01*
X132794404Y-85161704D01*
X132775910Y-85168944D01*
X132765494Y-85174458D01*
X132733553Y-85192650D01*
X132583276Y-85192650D01*
X132568372Y-85188314D01*
X132547533Y-85180008D01*
X132534913Y-85174282D01*
X132523217Y-85170410D01*
X132510409Y-85168262D01*
X132494454Y-85167705D01*
X132473317Y-85168611D01*
X132444961Y-85170848D01*
X132428205Y-85172355D01*
X132394112Y-85175665D01*
X132358680Y-85179422D01*
X132325263Y-85183249D01*
X132297213Y-85186772D01*
X132287179Y-85188166D01*
X132263664Y-85191437D01*
X132243090Y-85194038D01*
X132228159Y-85195640D01*
X132222564Y-85195993D01*
X132215331Y-85200448D01*
X132205813Y-85214857D01*
X132193099Y-85240801D01*
X132182093Y-85266000D01*
X132139919Y-85360227D01*
X132092859Y-85456296D01*
X132042808Y-85550739D01*
X131991657Y-85640084D01*
X131941300Y-85720862D01*
X131904965Y-85774051D01*
X131858329Y-85835349D01*
X131809945Y-85891950D01*
X131761021Y-85942838D01*
X131712763Y-85986994D01*
X131666377Y-86023399D01*
X131623070Y-86051036D01*
X131584048Y-86068885D01*
X131550518Y-86075928D01*
X131547231Y-86076000D01*
X131500080Y-86070397D01*
X131459149Y-86053087D01*
X131423181Y-86023311D01*
X131392550Y-85982925D01*
X131360936Y-85922506D01*
X131333201Y-85848206D01*
X131309581Y-85761098D01*
X131290311Y-85662258D01*
X131275629Y-85552761D01*
X131265768Y-85433681D01*
X131263790Y-85396327D01*
X131260279Y-85320655D01*
X131247875Y-85387682D01*
X131222533Y-85502075D01*
X131191067Y-85603919D01*
X131153217Y-85693791D01*
X131108722Y-85772270D01*
X131057323Y-85839934D01*
X131032208Y-85866673D01*
X130984905Y-85905506D01*
X130937096Y-85928580D01*
X130889156Y-85936076D01*
X130841461Y-85928175D01*
X130794386Y-85905060D01*
X130748305Y-85866912D01*
X130703595Y-85813913D01*
X130660631Y-85746243D01*
X130621533Y-85668000D01*
X130610108Y-85642672D01*
X130600809Y-85622347D01*
X130595311Y-85610682D01*
X130594770Y-85609627D01*
X130591744Y-85613874D01*
X130586346Y-85630416D01*
X130579441Y-85656370D01*
X130574393Y-85677627D01*
X130536532Y-85826166D01*
X130493237Y-85963274D01*
X130444905Y-86087760D01*
X130418371Y-86146155D01*
X130376180Y-86226883D01*
X130333830Y-86292984D01*
X130290309Y-86345777D01*
X130244604Y-86386579D01*
X130221520Y-86402336D01*
X130206507Y-86411113D01*
X130193154Y-86417078D01*
X130178890Y-86420751D01*
X130161145Y-86422653D01*
X130137347Y-86423303D01*
X130117948Y-86423305D01*
X130087812Y-86422779D01*
X130065092Y-86421173D01*
X130046956Y-86417944D01*
X130030569Y-86412550D01*
X130013099Y-86404450D01*
X130009401Y-86402549D01*
X129962428Y-86373208D01*
X129917011Y-86334317D01*
X129871899Y-86284495D01*
X129825844Y-86222361D01*
X129777595Y-86146537D01*
X129777591Y-86146531D01*
X129754858Y-86107277D01*
X129730521Y-86063146D01*
X129707541Y-86019621D01*
X129689355Y-85983179D01*
X129662787Y-85924469D01*
X129633112Y-85853326D01*
X129601199Y-85772064D01*
X129567915Y-85682998D01*
X129534130Y-85588442D01*
X129500713Y-85490712D01*
X129474081Y-85409476D01*
X129410307Y-85210953D01*
X129280794Y-85211467D01*
X129241326Y-85211892D01*
X129194576Y-85212840D01*
X129142224Y-85214244D01*
X129085955Y-85216035D01*
X129027451Y-85218144D01*
X128968393Y-85220503D01*
X128910465Y-85223042D01*
X128855348Y-85225695D01*
X128804725Y-85228391D01*
X128760280Y-85231062D01*
X128723693Y-85233640D01*
X128710948Y-85234690D01*
X128650102Y-85240000D01*
X128743676Y-85444000D01*
X128793612Y-85552989D01*
X128837894Y-85649924D01*
X128876902Y-85735684D01*
X128911021Y-85811148D01*
X128940633Y-85877195D01*
X128966120Y-85934705D01*
X128987866Y-85984556D01*
X129006252Y-86027628D01*
X129021662Y-86064800D01*
X129034478Y-86096951D01*
X129045083Y-86124960D01*
X129053859Y-86149707D01*
X129061190Y-86172071D01*
X129062692Y-86176904D01*
X129072520Y-86209945D01*
X129078105Y-86232398D01*
X129080053Y-86247777D01*
X129078970Y-86259593D01*
X129077766Y-86264306D01*
X129068927Y-86281615D01*
X129057455Y-86284186D01*
X129044206Y-86272324D01*
X129030487Y-86247360D01*
X129022841Y-86231295D01*
X129009687Y-86205045D01*
X128992098Y-86170694D01*
X128971149Y-86130328D01*
X128947914Y-86086031D01*
X128926381Y-86045360D01*
X128879207Y-85956030D01*
X128834852Y-85870614D01*
X128791783Y-85786059D01*
X128748472Y-85699312D01*
X128703389Y-85607321D01*
X128655003Y-85507032D01*
X128622984Y-85440000D01*
X128599995Y-85391707D01*
X128579070Y-85347736D01*
X128560968Y-85309679D01*
X128546447Y-85279132D01*
X128536264Y-85257688D01*
X128531178Y-85246942D01*
X128530744Y-85246005D01*
X128525621Y-85245931D01*
X128511389Y-85246579D01*
X128489182Y-85247866D01*
X128460135Y-85249709D01*
X128425383Y-85252027D01*
X128386060Y-85254738D01*
X128343299Y-85257760D01*
X128298237Y-85261010D01*
X128252006Y-85264407D01*
X128205742Y-85267867D01*
X128160580Y-85271311D01*
X128117652Y-85274654D01*
X128078095Y-85277815D01*
X128043042Y-85280713D01*
X128013628Y-85283264D01*
X128005128Y-85284037D01*
X127974625Y-85286719D01*
X127945803Y-85289014D01*
X127921058Y-85290748D01*
X127902785Y-85291747D01*
X127896177Y-85291922D01*
X127871841Y-85292000D01*
X127818313Y-85458863D01*
X127776476Y-85586251D01*
X127737404Y-85698987D01*
X127701141Y-85796950D01*
X127667735Y-85880024D01*
X127637231Y-85948088D01*
X127609676Y-86001026D01*
X127599452Y-86018000D01*
X127581566Y-86043548D01*
X127566894Y-86056854D01*
X127552981Y-86059003D01*
X127537368Y-86051085D01*
X127532759Y-86047537D01*
X127521600Y-86033712D01*
X127519291Y-86019738D01*
X127525706Y-86009048D01*
X127534283Y-86005525D01*
X127546614Y-86000025D01*
X127553429Y-85992783D01*
X127557520Y-85982185D01*
X127565472Y-85959008D01*
X127576700Y-85925094D01*
X127590620Y-85882282D01*
X127606645Y-85832414D01*
X127624192Y-85777328D01*
X127642676Y-85718867D01*
X127661511Y-85658871D01*
X127680114Y-85599179D01*
X127697899Y-85541632D01*
X127714281Y-85488072D01*
X127723721Y-85456863D01*
X127769193Y-85305726D01*
X127711519Y-85311202D01*
X127694989Y-85312890D01*
X127669473Y-85315652D01*
X127636213Y-85319347D01*
X127596450Y-85323834D01*
X127551427Y-85328971D01*
X127502383Y-85334619D01*
X127450562Y-85340635D01*
X127397203Y-85346879D01*
X127387179Y-85348058D01*
X127298734Y-85358403D01*
X127215608Y-85368001D01*
X127138296Y-85376799D01*
X127067295Y-85384743D01*
X127003101Y-85391780D01*
X126946211Y-85397858D01*
X126897120Y-85402923D01*
X126856326Y-85406921D01*
X126824324Y-85409801D01*
X126801611Y-85411509D01*
X126789667Y-85412000D01*
X126774585Y-85413325D01*
X126764255Y-85416697D01*
X126761928Y-85419014D01*
X126760344Y-85428371D01*
X126757195Y-85451486D01*
X126752730Y-85486372D01*
X126747197Y-85531038D01*
X126740845Y-85583495D01*
X126733922Y-85641755D01*
X126731192Y-85665014D01*
X126717631Y-85778362D01*
X126703937Y-85887905D01*
X126690287Y-85992492D01*
X126676855Y-86090974D01*
X126663817Y-86182198D01*
X126651348Y-86265016D01*
X126639623Y-86338276D01*
X126628817Y-86400827D01*
X126619107Y-86451520D01*
X126610666Y-86489204D01*
X126603671Y-86512727D01*
X126601269Y-86518000D01*
X126590857Y-86528211D01*
X126577810Y-86531686D01*
X126566275Y-86528232D01*
X126560796Y-86519866D01*
X126559729Y-86503327D01*
X126561254Y-86485866D01*
X126563086Y-86469904D01*
X126565654Y-86441753D01*
X126568643Y-86405138D01*
X126571735Y-86363786D01*
X126572288Y-86356000D01*
X126574804Y-86324272D01*
X126578794Y-86279132D01*
X126584029Y-86222946D01*
X126590279Y-86158080D01*
X126597316Y-86086900D01*
X126604910Y-86011771D01*
X126612833Y-85935059D01*
X126615670Y-85908000D01*
X126626035Y-85809534D01*
X126634857Y-85725675D01*
X126642256Y-85655241D01*
X126648349Y-85597051D01*
X126653255Y-85549921D01*
X126657091Y-85512670D01*
X126659976Y-85484116D01*
X126662027Y-85463077D01*
X126663364Y-85448371D01*
X126664104Y-85438817D01*
X126664366Y-85433231D01*
X126664267Y-85430432D01*
X126663926Y-85429238D01*
X126663594Y-85428703D01*
X126658213Y-85428394D01*
X126643651Y-85428853D01*
X126620967Y-85430015D01*
X126591223Y-85431814D01*
X126555480Y-85434182D01*
X126514797Y-85437055D01*
X126470237Y-85440366D01*
X126442331Y-85442516D01*
X126223076Y-85459624D01*
X126211538Y-85439366D01*
X126202115Y-85418483D01*
X126201236Y-85400771D01*
X126208680Y-85381098D01*
X126208974Y-85380530D01*
X126212517Y-85374876D01*
X126217452Y-85370364D01*
X126225121Y-85366683D01*
X126236866Y-85363521D01*
X126254029Y-85360567D01*
X126277952Y-85357508D01*
X126309977Y-85354034D01*
X126333333Y-85351651D01*
X126378593Y-85346928D01*
X126425080Y-85341790D01*
X126471290Y-85336428D01*
X126515722Y-85331030D01*
X126556873Y-85325787D01*
X126593242Y-85320888D01*
X126623327Y-85316523D01*
X126645625Y-85312881D01*
X126655001Y-85311043D01*
X126668954Y-85306626D01*
X126675911Y-85298936D01*
X126679121Y-85283997D01*
X126679454Y-85281121D01*
X126679672Y-85279129D01*
X126774686Y-85279129D01*
X126775803Y-85289007D01*
X126779324Y-85291971D01*
X126779919Y-85292000D01*
X126785858Y-85291223D01*
X126801136Y-85288981D01*
X126824887Y-85285408D01*
X126856243Y-85280636D01*
X126894339Y-85274798D01*
X126938308Y-85268027D01*
X126987283Y-85260456D01*
X127040398Y-85252217D01*
X127096787Y-85243444D01*
X127117098Y-85240278D01*
X127243192Y-85220762D01*
X127360232Y-85202959D01*
X127363984Y-85202400D01*
X129517808Y-85202400D01*
X129541218Y-85281200D01*
X129563248Y-85352727D01*
X129588875Y-85431531D01*
X129616927Y-85514313D01*
X129646233Y-85597774D01*
X129675621Y-85678613D01*
X129703921Y-85753532D01*
X129729961Y-85819230D01*
X129744787Y-85854653D01*
X129774856Y-85920319D01*
X129808361Y-85986209D01*
X129843619Y-86049435D01*
X129878947Y-86107108D01*
X129912663Y-86156338D01*
X129941571Y-86192548D01*
X129990282Y-86239624D01*
X130038833Y-86271317D01*
X130086878Y-86287546D01*
X130134069Y-86288232D01*
X130180060Y-86273292D01*
X130209556Y-86254858D01*
X130246211Y-86219886D01*
X130283533Y-86169785D01*
X130321098Y-86105334D01*
X130358482Y-86027312D01*
X130395263Y-85936501D01*
X130419659Y-85868000D01*
X130439784Y-85805695D01*
X130458122Y-85742259D01*
X130475722Y-85673687D01*
X130493636Y-85595976D01*
X130505638Y-85540128D01*
X130515170Y-85493773D01*
X130521535Y-85459896D01*
X130525088Y-85435949D01*
X130526185Y-85419381D01*
X130525744Y-85414234D01*
X130625299Y-85414234D01*
X130651731Y-85487117D01*
X130677845Y-85553769D01*
X130706050Y-85616241D01*
X130735129Y-85672323D01*
X130763862Y-85719806D01*
X130791034Y-85756480D01*
X130811643Y-85777223D01*
X130851678Y-85801389D01*
X130892575Y-85809985D01*
X130933344Y-85802961D01*
X130966517Y-85785135D01*
X131017930Y-85739904D01*
X131065931Y-85680632D01*
X131109590Y-85608800D01*
X131147976Y-85525893D01*
X131173174Y-85456000D01*
X131179535Y-85434421D01*
X131187517Y-85404871D01*
X131196223Y-85370991D01*
X131204759Y-85336421D01*
X131212231Y-85304803D01*
X131217742Y-85279779D01*
X131218131Y-85277616D01*
X131297435Y-85277616D01*
X131298229Y-85302358D01*
X131300394Y-85339004D01*
X131303606Y-85383678D01*
X131307540Y-85432505D01*
X131311871Y-85481608D01*
X131316277Y-85527113D01*
X131320431Y-85565142D01*
X131323418Y-85588000D01*
X131339827Y-85682440D01*
X131359075Y-85765527D01*
X131380844Y-85836427D01*
X131404818Y-85894307D01*
X131430679Y-85938333D01*
X131458109Y-85967673D01*
X131471327Y-85976090D01*
X131504365Y-85985302D01*
X131541426Y-85982986D01*
X131579744Y-85969609D01*
X131606648Y-85953326D01*
X131674729Y-85897935D01*
X131740748Y-85831744D01*
X131806038Y-85753256D01*
X131871933Y-85660972D01*
X131886444Y-85638975D01*
X131910353Y-85602168D01*
X131927882Y-85574641D01*
X131939967Y-85554458D01*
X131947540Y-85539680D01*
X131951536Y-85528369D01*
X131952890Y-85518588D01*
X131952534Y-85508400D01*
X131952039Y-85502892D01*
X131950790Y-85483960D01*
X131949319Y-85452784D01*
X131947778Y-85413112D01*
X131946320Y-85368690D01*
X131945784Y-85350036D01*
X131944987Y-85321045D01*
X132015384Y-85321045D01*
X132015384Y-85422090D01*
X132035088Y-85383045D01*
X132046953Y-85358720D01*
X132062080Y-85326567D01*
X132077950Y-85291973D01*
X132084819Y-85276695D01*
X132114846Y-85209390D01*
X132082312Y-85214695D01*
X132061915Y-85217570D01*
X132042956Y-85219496D01*
X132032581Y-85220000D01*
X132015384Y-85220000D01*
X132015384Y-85321045D01*
X131944987Y-85321045D01*
X131942430Y-85228072D01*
X131916087Y-85232133D01*
X131891600Y-85235224D01*
X131858089Y-85238415D01*
X131816787Y-85241635D01*
X131768925Y-85244811D01*
X131715737Y-85247872D01*
X131658454Y-85250745D01*
X131598309Y-85253359D01*
X131536533Y-85255641D01*
X131488461Y-85257132D01*
X131439160Y-85258560D01*
X131399147Y-85259842D01*
X131367457Y-85261080D01*
X131343121Y-85262379D01*
X131325175Y-85263842D01*
X131312650Y-85265573D01*
X131304580Y-85267674D01*
X131299999Y-85270251D01*
X131297941Y-85273407D01*
X131297437Y-85277244D01*
X131297435Y-85277616D01*
X131218131Y-85277616D01*
X131220399Y-85264991D01*
X131220512Y-85263362D01*
X131215705Y-85262108D01*
X131202564Y-85261085D01*
X131183012Y-85260388D01*
X131158972Y-85260112D01*
X131155128Y-85260113D01*
X131135472Y-85259910D01*
X131107089Y-85259282D01*
X131071504Y-85258279D01*
X131030239Y-85256951D01*
X130984821Y-85255348D01*
X130936773Y-85253519D01*
X130887620Y-85251515D01*
X130873004Y-85250892D01*
X130826840Y-85249021D01*
X130783887Y-85247506D01*
X130745221Y-85246367D01*
X130711917Y-85245626D01*
X130685052Y-85245305D01*
X130665702Y-85245424D01*
X130654943Y-85246006D01*
X130653082Y-85246524D01*
X130650651Y-85255942D01*
X130646593Y-85277466D01*
X130641538Y-85307589D01*
X130637600Y-85332861D01*
X130625299Y-85414234D01*
X130525744Y-85414234D01*
X130525179Y-85407643D01*
X130524505Y-85404620D01*
X130520307Y-85388343D01*
X130513402Y-85361688D01*
X130504943Y-85329103D01*
X130500120Y-85310550D01*
X130481016Y-85237100D01*
X130449482Y-85232695D01*
X130437065Y-85231539D01*
X130415207Y-85230166D01*
X130384724Y-85228604D01*
X130346431Y-85226882D01*
X130301141Y-85225028D01*
X130249670Y-85223070D01*
X130192833Y-85221037D01*
X130162228Y-85220000D01*
X130131445Y-85218957D01*
X130066320Y-85216859D01*
X129998273Y-85214772D01*
X129928120Y-85212723D01*
X129856674Y-85210742D01*
X129784751Y-85208856D01*
X129724288Y-85207361D01*
X129517808Y-85202400D01*
X127363984Y-85202400D01*
X127468017Y-85186899D01*
X127566344Y-85172610D01*
X127655014Y-85160122D01*
X127733824Y-85149465D01*
X127777583Y-85143798D01*
X127819269Y-85138506D01*
X127824448Y-85121704D01*
X127928205Y-85121704D01*
X127932905Y-85123261D01*
X127945372Y-85123447D01*
X127963153Y-85122258D01*
X127967948Y-85121767D01*
X127982013Y-85120357D01*
X128004925Y-85118211D01*
X128035290Y-85115453D01*
X128071715Y-85112207D01*
X128112804Y-85108598D01*
X128157166Y-85104749D01*
X128203404Y-85100784D01*
X128210256Y-85100201D01*
X128255620Y-85096247D01*
X128298426Y-85092333D01*
X128337439Y-85088586D01*
X128371426Y-85085133D01*
X128399153Y-85082099D01*
X128419388Y-85079610D01*
X128430896Y-85077794D01*
X128432176Y-85077485D01*
X128451531Y-85072000D01*
X128399821Y-84956000D01*
X128383914Y-84919809D01*
X128363653Y-84872923D01*
X128340218Y-84818114D01*
X128314788Y-84758157D01*
X128288542Y-84695829D01*
X128262661Y-84633902D01*
X128252730Y-84610000D01*
X128230190Y-84555872D01*
X128209357Y-84506278D01*
X128190894Y-84462760D01*
X128175462Y-84426861D01*
X128163723Y-84400123D01*
X128156339Y-84384087D01*
X128154019Y-84380000D01*
X128151060Y-84386992D01*
X128144750Y-84406494D01*
X128135756Y-84436293D01*
X128124742Y-84474176D01*
X128112373Y-84517930D01*
X128110126Y-84526000D01*
X128096833Y-84572707D01*
X128079994Y-84630104D01*
X128060692Y-84694602D01*
X128040009Y-84762611D01*
X128019029Y-84830543D01*
X127998885Y-84894652D01*
X127981441Y-84949738D01*
X127965562Y-85000145D01*
X127951798Y-85044108D01*
X127940697Y-85079860D01*
X127932810Y-85105637D01*
X127928687Y-85119673D01*
X127928205Y-85121704D01*
X127824448Y-85121704D01*
X127886233Y-84921253D01*
X127910709Y-84841241D01*
X127935107Y-84760338D01*
X127959031Y-84679952D01*
X127982081Y-84601490D01*
X128003858Y-84526357D01*
X128023963Y-84455961D01*
X128041998Y-84391709D01*
X128057563Y-84335007D01*
X128070260Y-84287262D01*
X128079691Y-84249881D01*
X128085455Y-84224271D01*
X128087179Y-84212481D01*
X128084639Y-84203330D01*
X128077477Y-84182372D01*
X128076464Y-84179553D01*
X128201833Y-84179553D01*
X128229810Y-84249776D01*
X128252855Y-84307221D01*
X128278477Y-84370393D01*
X128306069Y-84437848D01*
X128335025Y-84508147D01*
X128364740Y-84579847D01*
X128394605Y-84651507D01*
X128424015Y-84721685D01*
X128452364Y-84788939D01*
X128479044Y-84851828D01*
X128503450Y-84908910D01*
X128524975Y-84958744D01*
X128543012Y-84999888D01*
X128556955Y-85030900D01*
X128566197Y-85050339D01*
X128568130Y-85054000D01*
X128577707Y-85065205D01*
X128584200Y-85068000D01*
X128591096Y-85067670D01*
X128607017Y-85066734D01*
X128630743Y-85065267D01*
X128661051Y-85063348D01*
X128696719Y-85061054D01*
X128736527Y-85058461D01*
X128774431Y-85055967D01*
X128825517Y-85052772D01*
X128883895Y-85049430D01*
X128946600Y-85046091D01*
X129010670Y-85042905D01*
X129073141Y-85040022D01*
X129131050Y-85037593D01*
X129155537Y-85036662D01*
X129199688Y-85034972D01*
X129240544Y-85033260D01*
X129276989Y-85031582D01*
X129307906Y-85029997D01*
X129332178Y-85028564D01*
X129348689Y-85027339D01*
X129356322Y-85026382D01*
X129356706Y-85026204D01*
X129355455Y-85018195D01*
X129350757Y-84997790D01*
X129343188Y-84967310D01*
X129333327Y-84929075D01*
X129321751Y-84885406D01*
X129320899Y-84882233D01*
X129250833Y-84605929D01*
X129186025Y-84318494D01*
X129127019Y-84023012D01*
X129074363Y-83722564D01*
X129028603Y-83420233D01*
X128990285Y-83119101D01*
X128964357Y-82870489D01*
X128944104Y-82638895D01*
X128927769Y-82418361D01*
X128915192Y-82205265D01*
X128906215Y-81995988D01*
X128900678Y-81786906D01*
X128898422Y-81574398D01*
X128899004Y-81384000D01*
X128901916Y-81165467D01*
X128906624Y-80961336D01*
X128913118Y-80771887D01*
X128921385Y-80597401D01*
X128931416Y-80438160D01*
X128941486Y-80313151D01*
X128945525Y-80266925D01*
X128948865Y-80226094D01*
X128951306Y-80193331D01*
X128952647Y-80171306D01*
X128952746Y-80162854D01*
X128951941Y-80163921D01*
X128950218Y-80171377D01*
X128947437Y-80186086D01*
X128943458Y-80208910D01*
X128938142Y-80240714D01*
X128931347Y-80282359D01*
X128922935Y-80334709D01*
X128912764Y-80398627D01*
X128900695Y-80474977D01*
X128886588Y-80564621D01*
X128870303Y-80668423D01*
X128859093Y-80740000D01*
X128841177Y-80853580D01*
X128823122Y-80966195D01*
X128804559Y-81080042D01*
X128785122Y-81197319D01*
X128764441Y-81320220D01*
X128742148Y-81450944D01*
X128717875Y-81591686D01*
X128691255Y-81744644D01*
X128678968Y-81814869D01*
X128640274Y-82034510D01*
X128603649Y-82239822D01*
X128568841Y-82432059D01*
X128535602Y-82612478D01*
X128503682Y-82782335D01*
X128472831Y-82942886D01*
X128442799Y-83095387D01*
X128413337Y-83241093D01*
X128384194Y-83381261D01*
X128355122Y-83517148D01*
X128325870Y-83650007D01*
X128296188Y-83781097D01*
X128265828Y-83911672D01*
X128242520Y-84009776D01*
X128201833Y-84179553D01*
X128076464Y-84179553D01*
X128066379Y-84151491D01*
X128052032Y-84112571D01*
X128035124Y-84067494D01*
X128016339Y-84018145D01*
X128016079Y-84017466D01*
X127930438Y-83791255D01*
X127851196Y-83575962D01*
X127778000Y-83370460D01*
X127710499Y-83173619D01*
X127648341Y-82984310D01*
X127591174Y-82801406D01*
X127538648Y-82623777D01*
X127490409Y-82450295D01*
X127446108Y-82279833D01*
X127405391Y-82111260D01*
X127367907Y-81943449D01*
X127363757Y-81924000D01*
X127332773Y-81772059D01*
X127305618Y-81625231D01*
X127281530Y-81478757D01*
X127259747Y-81327876D01*
X127239508Y-81167828D01*
X127231040Y-81094565D01*
X127224336Y-81035249D01*
X127216330Y-80964749D01*
X127207543Y-80887625D01*
X127198495Y-80808439D01*
X127189707Y-80731751D01*
X127183442Y-80677246D01*
X127156410Y-80442493D01*
X127152957Y-80633246D01*
X127150348Y-80750537D01*
X127146663Y-80871338D01*
X127141804Y-80997921D01*
X127135673Y-81132558D01*
X127128169Y-81277519D01*
X127119194Y-81435077D01*
X127115057Y-81504000D01*
X127105443Y-81660539D01*
X127096286Y-81806109D01*
X127087432Y-81942646D01*
X127078726Y-82072084D01*
X127070013Y-82196359D01*
X127061138Y-82317406D01*
X127051948Y-82437162D01*
X127042286Y-82557561D01*
X127031999Y-82680539D01*
X127020932Y-82808032D01*
X127008930Y-82941975D01*
X126995838Y-83084304D01*
X126981501Y-83236954D01*
X126965766Y-83401860D01*
X126951670Y-83548000D01*
X126943906Y-83628181D01*
X126935041Y-83719710D01*
X126925509Y-83818111D01*
X126915744Y-83918912D01*
X126906179Y-84017640D01*
X126897248Y-84109820D01*
X126892385Y-84160000D01*
X126886074Y-84224224D01*
X126878640Y-84298375D01*
X126870294Y-84380449D01*
X126861249Y-84468438D01*
X126851716Y-84560337D01*
X126841908Y-84654139D01*
X126832036Y-84747839D01*
X126822312Y-84839430D01*
X126812949Y-84926906D01*
X126804159Y-85008261D01*
X126796153Y-85081489D01*
X126789144Y-85144583D01*
X126783343Y-85195539D01*
X126779609Y-85227091D01*
X126775960Y-85259452D01*
X126774686Y-85279129D01*
X126679672Y-85279129D01*
X126684475Y-85235193D01*
X126690865Y-85175754D01*
X126698386Y-85105092D01*
X126706798Y-85025498D01*
X126715864Y-84939263D01*
X126725345Y-84848677D01*
X126735002Y-84756029D01*
X126744596Y-84663609D01*
X126753890Y-84573709D01*
X126762645Y-84488618D01*
X126770621Y-84410626D01*
X126777582Y-84342024D01*
X126783287Y-84285101D01*
X126784979Y-84268000D01*
X126791008Y-84206910D01*
X126798339Y-84132856D01*
X126806689Y-84048682D01*
X126815775Y-83957231D01*
X126825314Y-83861348D01*
X126835025Y-83763875D01*
X126844623Y-83667657D01*
X126853780Y-83576000D01*
X126869628Y-83417049D01*
X126883972Y-83271994D01*
X126896972Y-83138945D01*
X126908785Y-83016008D01*
X126919571Y-82901292D01*
X126929488Y-82792905D01*
X126938694Y-82688955D01*
X126947348Y-82587550D01*
X126955608Y-82486798D01*
X126963633Y-82384807D01*
X126971582Y-82279686D01*
X126979612Y-82169541D01*
X126987883Y-82052483D01*
X126996553Y-81926617D01*
X127005781Y-81790053D01*
X127014988Y-81652000D01*
X127023687Y-81520030D01*
X127031336Y-81401638D01*
X127038051Y-81294502D01*
X127043948Y-81196302D01*
X127049142Y-81104719D01*
X127053749Y-81017434D01*
X127057883Y-80932125D01*
X127061662Y-80846473D01*
X127065199Y-80758158D01*
X127068612Y-80664861D01*
X127072015Y-80564260D01*
X127075523Y-80454037D01*
X127076943Y-80408000D01*
X127080232Y-80302400D01*
X127083216Y-80211644D01*
X127085989Y-80134587D01*
X127088645Y-80070086D01*
X127091279Y-80016996D01*
X127093986Y-79974174D01*
X127096859Y-79940474D01*
X127099993Y-79914754D01*
X127103483Y-79895868D01*
X127107423Y-79882673D01*
X127111907Y-79874024D01*
X127117030Y-79868778D01*
X127121655Y-79866261D01*
X127137648Y-79866720D01*
X127151673Y-79878656D01*
X127158468Y-79893766D01*
X127161199Y-79909924D01*
X127164501Y-79936995D01*
X127167786Y-79969993D01*
X127168761Y-79981258D01*
X127172524Y-80021082D01*
X127178294Y-80074783D01*
X127185844Y-80140619D01*
X127194948Y-80216852D01*
X127205379Y-80301742D01*
X127216910Y-80393549D01*
X127229314Y-80490533D01*
X127242365Y-80590954D01*
X127255836Y-80693073D01*
X127269501Y-80795149D01*
X127283132Y-80895443D01*
X127296503Y-80992215D01*
X127309387Y-81083725D01*
X127321557Y-81168234D01*
X127332788Y-81244001D01*
X127336434Y-81268000D01*
X127367868Y-81456320D01*
X127405830Y-81654103D01*
X127449785Y-81859212D01*
X127499196Y-82069510D01*
X127553528Y-82282860D01*
X127612243Y-82497127D01*
X127674806Y-82710173D01*
X127740681Y-82919861D01*
X127782779Y-83046738D01*
X127804487Y-83110157D01*
X127828385Y-83178848D01*
X127854016Y-83251578D01*
X127880924Y-83327116D01*
X127908651Y-83404231D01*
X127936741Y-83481692D01*
X127964735Y-83558267D01*
X127992178Y-83632724D01*
X128018612Y-83703833D01*
X128043580Y-83770363D01*
X128066626Y-83831081D01*
X128087291Y-83884757D01*
X128105120Y-83930159D01*
X128119655Y-83966056D01*
X128130438Y-83991216D01*
X128137014Y-84004409D01*
X128138818Y-84005979D01*
X128141506Y-83996905D01*
X128147141Y-83974725D01*
X128155262Y-83941420D01*
X128165407Y-83898975D01*
X128177113Y-83849372D01*
X128189918Y-83794595D01*
X128203360Y-83736626D01*
X128216976Y-83677449D01*
X128230305Y-83619046D01*
X128242885Y-83563401D01*
X128254253Y-83512496D01*
X128261405Y-83480000D01*
X128293266Y-83330952D01*
X128327161Y-83166375D01*
X128363059Y-82986412D01*
X128400935Y-82791207D01*
X128440761Y-82580903D01*
X128482508Y-82355645D01*
X128526149Y-82115577D01*
X128571657Y-81860843D01*
X128571807Y-81860000D01*
X128593642Y-81736716D01*
X128613016Y-81627178D01*
X128630214Y-81529719D01*
X128645525Y-81442670D01*
X128659237Y-81364364D01*
X128671636Y-81293131D01*
X128683010Y-81227305D01*
X128693646Y-81165217D01*
X128703833Y-81105199D01*
X128713856Y-81045583D01*
X128724005Y-80984702D01*
X128734566Y-80920886D01*
X128745826Y-80852468D01*
X128753777Y-80804000D01*
X128775358Y-80672666D01*
X128794703Y-80555703D01*
X128812026Y-80451942D01*
X128827535Y-80360216D01*
X128841443Y-80279357D01*
X128853961Y-80208197D01*
X128865299Y-80145568D01*
X128868595Y-80128000D01*
X128953846Y-80128000D01*
X128956410Y-80132000D01*
X128958974Y-80128000D01*
X128956410Y-80124000D01*
X128953846Y-80128000D01*
X128868595Y-80128000D01*
X128875668Y-80090301D01*
X128885279Y-80041229D01*
X128894343Y-79997185D01*
X128903071Y-79956999D01*
X128911674Y-79919504D01*
X128919022Y-79888970D01*
X128934918Y-79830981D01*
X128950421Y-79788576D01*
X128965813Y-79761376D01*
X128981376Y-79748999D01*
X128997390Y-79751064D01*
G37*
D12*
%TO.C,C3*%
X137640000Y-68127836D02*
X137640000Y-67912164D01*
X138360000Y-68127836D02*
X138360000Y-67912164D01*
%TO.C,C8*%
X135337836Y-76640000D02*
X135122164Y-76640000D01*
X135337836Y-77360000D02*
X135122164Y-77360000D01*
D11*
%TO.C,J1*%
X163475000Y-72330000D02*
X163475000Y-73055000D01*
X163475000Y-73055000D02*
X163900000Y-73055000D01*
X163900000Y-69455000D02*
X163900000Y-68455000D01*
X163900000Y-73055000D02*
X163900000Y-74055000D01*
X165650000Y-75405000D02*
X167050000Y-75405000D01*
X167050000Y-67105000D02*
X165650000Y-67105000D01*
X169450000Y-75405000D02*
X169600000Y-75405000D01*
X169600000Y-67105000D02*
X169450000Y-67105000D01*
X169600000Y-67405000D02*
X169600000Y-67105000D01*
X169600000Y-75105000D02*
X170050000Y-75105000D01*
X169600000Y-75405000D02*
X169600000Y-75105000D01*
X170050000Y-67405000D02*
X169600000Y-67405000D01*
D12*
%TO.C,R5*%
X146846359Y-87120000D02*
X147153641Y-87120000D01*
X146846359Y-87880000D02*
X147153641Y-87880000D01*
%TO.C,R3*%
X164120000Y-77596359D02*
X164120000Y-77903641D01*
X164880000Y-77596359D02*
X164880000Y-77903641D01*
%TO.C,C9*%
X141892164Y-77640000D02*
X142107836Y-77640000D01*
X141892164Y-78360000D02*
X142107836Y-78360000D01*
%TO.C,C2*%
X141392164Y-65140000D02*
X141607836Y-65140000D01*
X141392164Y-65860000D02*
X141607836Y-65860000D01*
%TO.C,C11*%
X130640000Y-74837836D02*
X130640000Y-74622164D01*
X131360000Y-74837836D02*
X131360000Y-74622164D01*
%TO.C,C5*%
X141392164Y-63640000D02*
X141607836Y-63640000D01*
X141392164Y-64360000D02*
X141607836Y-64360000D01*
%TO.C,R1*%
X130620000Y-67153641D02*
X130620000Y-66846359D01*
X131380000Y-67153641D02*
X131380000Y-66846359D01*
%TO.C,Y1*%
X126940000Y-71540000D02*
X126940000Y-75660000D01*
X130360000Y-71540000D02*
X126940000Y-71540000D01*
%TO.C,R2*%
X153120000Y-69346359D02*
X153120000Y-69653641D01*
X153880000Y-69346359D02*
X153880000Y-69653641D01*
%TO.C,J4*%
X138250000Y-54120000D02*
X138250000Y-56880000D01*
X145980000Y-54120000D02*
X138250000Y-54120000D01*
X145980000Y-54120000D02*
X145980000Y-56880000D01*
X145980000Y-56880000D02*
X138250000Y-56880000D01*
X147250000Y-54120000D02*
X148630000Y-54120000D01*
X148630000Y-54120000D02*
X148630000Y-55500000D01*
%TO.C,FB1*%
X136740000Y-75837221D02*
X136740000Y-76162779D01*
X137760000Y-75837221D02*
X137760000Y-76162779D01*
%TD*%
M02*
