M48
; DRILL file {KiCad 9.0.6} date 2026-06-26T16:49:20+0100
; FORMAT={3:3/ absolute / metric / suppress leading zeros}
; #@! TF.CreationDate,2026-06-26T16:49:20+01:00
; #@! TF.GenerationSoftware,Kicad,Pcbnew,9.0.6
; #@! TF.FileFunction,Plated,1,2,PTH
FMAT,2
METRIC,TZ
; #@! TA.AperFunction,Plated,PTH,ViaDrill
T1C0.300
; #@! TA.AperFunction,Plated,PTH,ComponentDrill
T2C0.550
; #@! TA.AperFunction,Plated,PTH,ComponentDrill
T3C0.850
; #@! TA.AperFunction,Plated,PTH,ComponentDrill
T4C1.000
%
G90
G05
T1
X130000Y-63500
X131915Y-73915
X132250Y-72250
X132750Y-70250
X133000Y-75250
X134750Y-74750
X134750Y-77750
X138000Y-66750
X141000Y-88500
X141045Y-72488
X142750Y-88500
X143250Y-78000
X145000Y-85000
X146250Y-74250
X147000Y-85000
X151500Y-69675
X155750Y-79500
X155750Y-80250
X157500Y-83750
X158250Y-83750
X161750Y-69675
X162250Y-81500
X164555Y-79490
T4
X139630Y-55500
X139880Y-90750
X142170Y-55500
X142420Y-90750
X144710Y-55500
X144960Y-90750
X147250Y-55500
X147500Y-90750
X151420Y-55500
X153960Y-55500
X156500Y-55500
X159040Y-55500
T2
G00X167925Y-67380
M15
G01X168575Y-67380
M16
G05
G00X167925Y-75130
M15
G01X168575Y-75130
M16
G05
T3
G00X164175Y-67530
M15
G01X164725Y-67530
M16
G05
G00X164175Y-74980
M15
G01X164725Y-74980
M16
G05
M30
