%TF.GenerationSoftware,KiCad,Pcbnew,9.0.6*%
%TF.CreationDate,2026-06-26T16:48:06+01:00*%
%TF.ProjectId,KiCad-STM32-tut,4b694361-642d-4535-944d-33322d747574,rev?*%
%TF.SameCoordinates,Original*%
%TF.FileFunction,Copper,L1,Top*%
%TF.FilePolarity,Positive*%
%FSLAX46Y46*%
G04 Gerber Fmt 4.6, Leading zero omitted, Abs format (unit mm)*
G04 Created by KiCad (PCBNEW 9.0.6) date 2026-06-26 16:48:06*
%MOMM*%
%LPD*%
G01*
G04 APERTURE LIST*
G04 Aperture macros list*
%AMRoundRect*
0 Rectangle with rounded corners*
0 $1 Rounding radius*
0 $2 $3 $4 $5 $6 $7 $8 $9 X,Y pos of 4 corners*
0 Add a 4 corners polygon primitive as box body*
4,1,4,$2,$3,$4,$5,$6,$7,$8,$9,$2,$3,0*
0 Add four circle primitives for the rounded corners*
1,1,$1+$1,$2,$3*
1,1,$1+$1,$4,$5*
1,1,$1+$1,$6,$7*
1,1,$1+$1,$8,$9*
0 Add four rect primitives between the rounded corners*
20,1,$1+$1,$2,$3,$4,$5,0*
20,1,$1+$1,$4,$5,$6,$7,0*
20,1,$1+$1,$6,$7,$8,$9,0*
20,1,$1+$1,$8,$9,$2,$3,0*%
G04 Aperture macros list end*
%TA.AperFunction,SMDPad,CuDef*%
%ADD10RoundRect,0.250000X0.475000X-0.250000X0.475000X0.250000X-0.475000X0.250000X-0.475000X-0.250000X0*%
%TD*%
%TA.AperFunction,SMDPad,CuDef*%
%ADD11RoundRect,0.135000X0.135000X0.185000X-0.135000X0.185000X-0.135000X-0.185000X0.135000X-0.185000X0*%
%TD*%
%TA.AperFunction,SMDPad,CuDef*%
%ADD12RoundRect,0.375000X-0.375000X0.625000X-0.375000X-0.625000X0.375000X-0.625000X0.375000X0.625000X0*%
%TD*%
%TA.AperFunction,SMDPad,CuDef*%
%ADD13RoundRect,0.500000X-1.400000X0.500000X-1.400000X-0.500000X1.400000X-0.500000X1.400000X0.500000X0*%
%TD*%
%TA.AperFunction,SMDPad,CuDef*%
%ADD14RoundRect,0.218750X-0.256250X0.218750X-0.256250X-0.218750X0.256250X-0.218750X0.256250X0.218750X0*%
%TD*%
%TA.AperFunction,ComponentPad*%
%ADD15R,1.700000X1.700000*%
%TD*%
%TA.AperFunction,ComponentPad*%
%ADD16C,1.700000*%
%TD*%
%TA.AperFunction,SMDPad,CuDef*%
%ADD17RoundRect,0.140000X0.170000X-0.140000X0.170000X0.140000X-0.170000X0.140000X-0.170000X-0.140000X0*%
%TD*%
%TA.AperFunction,SMDPad,CuDef*%
%ADD18RoundRect,0.140000X-0.170000X0.140000X-0.170000X-0.140000X0.170000X-0.140000X0.170000X0.140000X0*%
%TD*%
%TA.AperFunction,SMDPad,CuDef*%
%ADD19RoundRect,0.140000X0.140000X0.170000X-0.140000X0.170000X-0.140000X-0.170000X0.140000X-0.170000X0*%
%TD*%
%TA.AperFunction,SMDPad,CuDef*%
%ADD20R,0.800000X1.000000*%
%TD*%
%TA.AperFunction,SMDPad,CuDef*%
%ADD21R,1.500000X0.700000*%
%TD*%
%TA.AperFunction,SMDPad,CuDef*%
%ADD22RoundRect,0.250000X-0.250000X-0.475000X0.250000X-0.475000X0.250000X0.475000X-0.250000X0.475000X0*%
%TD*%
%TA.AperFunction,SMDPad,CuDef*%
%ADD23RoundRect,0.075000X-0.662500X-0.075000X0.662500X-0.075000X0.662500X0.075000X-0.662500X0.075000X0*%
%TD*%
%TA.AperFunction,SMDPad,CuDef*%
%ADD24RoundRect,0.075000X-0.075000X-0.662500X0.075000X-0.662500X0.075000X0.662500X-0.075000X0.662500X0*%
%TD*%
%TA.AperFunction,SMDPad,CuDef*%
%ADD25R,1.300000X0.450000*%
%TD*%
%TA.AperFunction,HeatsinkPad*%
%ADD26O,1.800000X1.150000*%
%TD*%
%TA.AperFunction,HeatsinkPad*%
%ADD27O,2.000000X1.450000*%
%TD*%
%TA.AperFunction,SMDPad,CuDef*%
%ADD28RoundRect,0.135000X-0.135000X-0.185000X0.135000X-0.185000X0.135000X0.185000X-0.135000X0.185000X0*%
%TD*%
%TA.AperFunction,SMDPad,CuDef*%
%ADD29RoundRect,0.135000X-0.185000X0.135000X-0.185000X-0.135000X0.185000X-0.135000X0.185000X0.135000X0*%
%TD*%
%TA.AperFunction,SMDPad,CuDef*%
%ADD30RoundRect,0.140000X-0.140000X-0.170000X0.140000X-0.170000X0.140000X0.170000X-0.140000X0.170000X0*%
%TD*%
%TA.AperFunction,SMDPad,CuDef*%
%ADD31RoundRect,0.135000X0.185000X-0.135000X0.185000X0.135000X-0.185000X0.135000X-0.185000X-0.135000X0*%
%TD*%
%TA.AperFunction,SMDPad,CuDef*%
%ADD32RoundRect,0.250000X-0.350000X0.450000X-0.350000X-0.450000X0.350000X-0.450000X0.350000X0.450000X0*%
%TD*%
%TA.AperFunction,ViaPad*%
%ADD33C,0.600000*%
%TD*%
%TA.AperFunction,Conductor*%
%ADD34C,0.300000*%
%TD*%
%TA.AperFunction,Conductor*%
%ADD35C,0.500000*%
%TD*%
%TA.AperFunction,Conductor*%
%ADD36C,0.200000*%
%TD*%
G04 APERTURE END LIST*
D10*
%TO.P,C13,1*%
%TO.N,+3.3V*%
X160750000Y-83400000D03*
%TO.P,C13,2*%
%TO.N,GND*%
X160750000Y-81500000D03*
%TD*%
D11*
%TO.P,R4,1*%
%TO.N,+3.3V*%
X143010000Y-87500000D03*
%TO.P,R4,2*%
%TO.N,/I2C2_SCL*%
X141990000Y-87500000D03*
%TD*%
D12*
%TO.P,U2,1,GND*%
%TO.N,GND*%
X157800000Y-82250000D03*
%TO.P,U2,2,VO*%
%TO.N,+3.3V*%
X155500000Y-82250000D03*
D13*
X155500000Y-88550000D03*
D12*
%TO.P,U2,3,VI*%
%TO.N,VBUS*%
X153200000Y-82250000D03*
%TD*%
D14*
%TO.P,D1,1,K*%
%TO.N,/PWR_LED_K*%
X166305000Y-77462500D03*
%TO.P,D1,2,A*%
%TO.N,+3.3V*%
X166305000Y-79037500D03*
%TD*%
D15*
%TO.P,J2,1,Pin_1*%
%TO.N,GND*%
X151420000Y-55500000D03*
D16*
%TO.P,J2,2,Pin_2*%
%TO.N,/SYS_SWCLK*%
X153960000Y-55500000D03*
%TO.P,J2,3,Pin_3*%
%TO.N,/SYS_SWIDO*%
X156500000Y-55500000D03*
%TO.P,J2,4,Pin_4*%
%TO.N,+3.3V*%
X159040000Y-55500000D03*
%TD*%
D17*
%TO.P,C10,1*%
%TO.N,/HSE_IN*%
X131000000Y-73250000D03*
%TO.P,C10,2*%
%TO.N,GND*%
X131000000Y-72290000D03*
%TD*%
D18*
%TO.P,C1,1*%
%TO.N,+3.3V*%
X150000000Y-68520000D03*
%TO.P,C1,2*%
%TO.N,GND*%
X150000000Y-69480000D03*
%TD*%
%TO.P,C4,1*%
%TO.N,+3.3V*%
X148250000Y-76770000D03*
%TO.P,C4,2*%
%TO.N,GND*%
X148250000Y-77730000D03*
%TD*%
D15*
%TO.P,J3,1,Pin_1*%
%TO.N,+3.3V*%
X139880000Y-90750000D03*
D16*
%TO.P,J3,2,Pin_2*%
%TO.N,/I2C2_SCL*%
X142420000Y-90750000D03*
%TO.P,J3,3,Pin_3*%
%TO.N,/I2C2_SDA*%
X144960000Y-90750000D03*
%TO.P,J3,4,Pin_4*%
%TO.N,GND*%
X147500000Y-90750000D03*
%TD*%
D19*
%TO.P,C7,1*%
%TO.N,+3.3VA*%
X135690000Y-75500000D03*
%TO.P,C7,2*%
%TO.N,GND*%
X134730000Y-75500000D03*
%TD*%
D20*
%TO.P,SW1,*%
%TO.N,*%
X128610000Y-63100000D03*
X126400000Y-63100000D03*
X128610000Y-70400000D03*
X126400000Y-70400000D03*
D21*
%TO.P,SW1,1,A*%
%TO.N,GND*%
X129260000Y-64500000D03*
%TO.P,SW1,2,B*%
%TO.N,/SW_BOOT0 :)*%
X129260000Y-67500000D03*
%TO.P,SW1,3,C*%
%TO.N,+3.3V*%
X129260000Y-69000000D03*
%TD*%
D22*
%TO.P,C12,1*%
%TO.N,VBUS*%
X152550000Y-79650000D03*
%TO.P,C12,2*%
%TO.N,GND*%
X154450000Y-79650000D03*
%TD*%
D23*
%TO.P,U1,1,VBAT*%
%TO.N,+3.3V*%
X139837500Y-68750000D03*
%TO.P,U1,2,PC13*%
%TO.N,unconnected-(U1-PC13-Pad2)*%
X139837500Y-69250000D03*
%TO.P,U1,3,PC14*%
%TO.N,unconnected-(U1-PC14-Pad3)*%
X139837500Y-69750000D03*
%TO.P,U1,4,PC15*%
%TO.N,unconnected-(U1-PC15-Pad4)*%
X139837500Y-70250000D03*
%TO.P,U1,5,PD0*%
%TO.N,/HSE_IN*%
X139837500Y-70750000D03*
%TO.P,U1,6,PD1*%
%TO.N,/HSE_OUT*%
X139837500Y-71250000D03*
%TO.P,U1,7,NRST*%
%TO.N,/NRST*%
X139837500Y-71750000D03*
%TO.P,U1,8,VSSA*%
%TO.N,GND*%
X139837500Y-72250000D03*
%TO.P,U1,9,VDDA*%
%TO.N,+3.3VA*%
X139837500Y-72750000D03*
%TO.P,U1,10,PA0*%
%TO.N,unconnected-(U1-PA0-Pad10)*%
X139837500Y-73250000D03*
%TO.P,U1,11,PA1*%
%TO.N,unconnected-(U1-PA1-Pad11)*%
X139837500Y-73750000D03*
%TO.P,U1,12,PA2*%
%TO.N,unconnected-(U1-PA2-Pad12)*%
X139837500Y-74250000D03*
D24*
%TO.P,U1,13,PA3*%
%TO.N,unconnected-(U1-PA3-Pad13)*%
X141250000Y-75662500D03*
%TO.P,U1,14,PA4*%
%TO.N,unconnected-(U1-PA4-Pad14)*%
X141750000Y-75662500D03*
%TO.P,U1,15,PA5*%
%TO.N,unconnected-(U1-PA5-Pad15)*%
X142250000Y-75662500D03*
%TO.P,U1,16,PA6*%
%TO.N,unconnected-(U1-PA6-Pad16)*%
X142750000Y-75662500D03*
%TO.P,U1,17,PA7*%
%TO.N,unconnected-(U1-PA7-Pad17)*%
X143250000Y-75662500D03*
%TO.P,U1,18,PB0*%
%TO.N,unconnected-(U1-PB0-Pad18)*%
X143750000Y-75662500D03*
%TO.P,U1,19,PB1*%
%TO.N,unconnected-(U1-PB1-Pad19)*%
X144250000Y-75662500D03*
%TO.P,U1,20,PB2*%
%TO.N,unconnected-(U1-PB2-Pad20)*%
X144750000Y-75662500D03*
%TO.P,U1,21,PB10*%
%TO.N,/I2C2_SCL*%
X145250000Y-75662500D03*
%TO.P,U1,22,PB11*%
%TO.N,/I2C2_SDA*%
X145750000Y-75662500D03*
%TO.P,U1,23,VSS*%
%TO.N,GND*%
X146250000Y-75662500D03*
%TO.P,U1,24,VDD*%
%TO.N,+3.3V*%
X146750000Y-75662500D03*
D23*
%TO.P,U1,25,PB12*%
%TO.N,unconnected-(U1-PB12-Pad25)*%
X148162500Y-74250000D03*
%TO.P,U1,26,PB13*%
%TO.N,unconnected-(U1-PB13-Pad26)*%
X148162500Y-73750000D03*
%TO.P,U1,27,PB14*%
%TO.N,unconnected-(U1-PB14-Pad27)*%
X148162500Y-73250000D03*
%TO.P,U1,28,PB15*%
%TO.N,unconnected-(U1-PB15-Pad28)*%
X148162500Y-72750000D03*
%TO.P,U1,29,PA8*%
%TO.N,unconnected-(U1-PA8-Pad29)*%
X148162500Y-72250000D03*
%TO.P,U1,30,PA9*%
%TO.N,unconnected-(U1-PA9-Pad30)*%
X148162500Y-71750000D03*
%TO.P,U1,31,PA10*%
%TO.N,unconnected-(U1-PA10-Pad31)*%
X148162500Y-71250000D03*
%TO.P,U1,32,PA11*%
%TO.N,/USB_D-*%
X148162500Y-70750000D03*
%TO.P,U1,33,PA12*%
%TO.N,/USB_D+*%
X148162500Y-70250000D03*
%TO.P,U1,34,PA13*%
%TO.N,/SYS_SWIDO*%
X148162500Y-69750000D03*
%TO.P,U1,35,VSS*%
%TO.N,GND*%
X148162500Y-69250000D03*
%TO.P,U1,36,VDD*%
%TO.N,+3.3V*%
X148162500Y-68750000D03*
D24*
%TO.P,U1,37,PA14*%
%TO.N,/SYS_SWCLK*%
X146750000Y-67337500D03*
%TO.P,U1,38,PA15*%
%TO.N,unconnected-(U1-PA15-Pad38)*%
X146250000Y-67337500D03*
%TO.P,U1,39,PB3*%
%TO.N,unconnected-(U1-PB3-Pad39)*%
X145750000Y-67337500D03*
%TO.P,U1,40,PB4*%
%TO.N,unconnected-(U1-PB4-Pad40)*%
X145250000Y-67337500D03*
%TO.P,U1,41,PB5*%
%TO.N,unconnected-(U1-PB5-Pad41)*%
X144750000Y-67337500D03*
%TO.P,U1,42,PB6*%
%TO.N,/USART1_TX*%
X144250000Y-67337500D03*
%TO.P,U1,43,PB7*%
%TO.N,/USART1_RX*%
X143750000Y-67337500D03*
%TO.P,U1,44,BOOT0*%
%TO.N,/BOOT0*%
X143250000Y-67337500D03*
%TO.P,U1,45,PB8*%
%TO.N,unconnected-(U1-PB8-Pad45)*%
X142750000Y-67337500D03*
%TO.P,U1,46,PB9*%
%TO.N,unconnected-(U1-PB9-Pad46)*%
X142250000Y-67337500D03*
%TO.P,U1,47,VSS*%
%TO.N,GND*%
X141750000Y-67337500D03*
%TO.P,U1,48,VDD*%
%TO.N,+3.3V*%
X141250000Y-67337500D03*
%TD*%
D17*
%TO.P,C6,1*%
%TO.N,+3.3VA*%
X138000000Y-72980000D03*
%TO.P,C6,2*%
%TO.N,GND*%
X138000000Y-72020000D03*
%TD*%
%TO.P,C3,1*%
%TO.N,+3.3V*%
X138000000Y-68500000D03*
%TO.P,C3,2*%
%TO.N,GND*%
X138000000Y-67540000D03*
%TD*%
D19*
%TO.P,C8,1*%
%TO.N,+3.3V*%
X135710000Y-77000000D03*
%TO.P,C8,2*%
%TO.N,GND*%
X134750000Y-77000000D03*
%TD*%
D25*
%TO.P,J1,1,VBUS*%
%TO.N,VBUS*%
X164400000Y-72555000D03*
%TO.P,J1,2,D-*%
%TO.N,/USB_D-*%
X164400000Y-71905000D03*
%TO.P,J1,3,D+*%
%TO.N,/USB_D+*%
X164400000Y-71255000D03*
%TO.P,J1,4,ID*%
%TO.N,unconnected-(J1-ID-Pad4)*%
X164400000Y-70605000D03*
%TO.P,J1,5,GND*%
%TO.N,GND*%
X164400000Y-69955000D03*
D26*
%TO.P,J1,6,Shield*%
%TO.N,unconnected-(J1-Shield-Pad6)_3*%
X168250000Y-75130000D03*
D27*
%TO.N,unconnected-(J1-Shield-Pad6)_2*%
X164450000Y-74980000D03*
%TO.N,unconnected-(J1-Shield-Pad6)_1*%
X164450000Y-67530000D03*
D26*
%TO.N,unconnected-(J1-Shield-Pad6)*%
X168250000Y-67380000D03*
%TD*%
D28*
%TO.P,R5,1*%
%TO.N,+3.3V*%
X146490000Y-87500000D03*
%TO.P,R5,2*%
%TO.N,/I2C2_SDA*%
X147510000Y-87500000D03*
%TD*%
D29*
%TO.P,R3,1*%
%TO.N,/PWR_LED_K*%
X164500000Y-77240000D03*
%TO.P,R3,2*%
%TO.N,GND*%
X164500000Y-78260000D03*
%TD*%
D30*
%TO.P,C9,1*%
%TO.N,/NRST*%
X141520000Y-78000000D03*
%TO.P,C9,2*%
%TO.N,GND*%
X142480000Y-78000000D03*
%TD*%
%TO.P,C2,1*%
%TO.N,+3.3V*%
X141020000Y-65500000D03*
%TO.P,C2,2*%
%TO.N,GND*%
X141980000Y-65500000D03*
%TD*%
D17*
%TO.P,C11,1*%
%TO.N,/HSE_OUT*%
X131000000Y-75210000D03*
%TO.P,C11,2*%
%TO.N,GND*%
X131000000Y-74250000D03*
%TD*%
D30*
%TO.P,C5,1*%
%TO.N,+3.3V*%
X141020000Y-64000000D03*
%TO.P,C5,2*%
%TO.N,GND*%
X141980000Y-64000000D03*
%TD*%
D31*
%TO.P,R1,1*%
%TO.N,/SW_BOOT0 :)*%
X131000000Y-67510000D03*
%TO.P,R1,2*%
%TO.N,/BOOT0*%
X131000000Y-66490000D03*
%TD*%
D32*
%TO.P,Y1,1,1*%
%TO.N,/HSE_IN*%
X127800000Y-72500000D03*
%TO.P,Y1,2,2*%
%TO.N,GND*%
X127800000Y-74700000D03*
%TO.P,Y1,3,3*%
%TO.N,/HSE_OUT*%
X129500000Y-74700000D03*
%TO.P,Y1,4,4*%
%TO.N,GND*%
X129500000Y-72500000D03*
%TD*%
D29*
%TO.P,R2,1*%
%TO.N,+3.3V*%
X153500000Y-68990000D03*
%TO.P,R2,2*%
%TO.N,/USB_D+*%
X153500000Y-70010000D03*
%TD*%
D15*
%TO.P,J4,1,Pin_1*%
%TO.N,+3.3V*%
X147250000Y-55500000D03*
D16*
%TO.P,J4,2,Pin_2*%
%TO.N,/USART1_TX*%
X144710000Y-55500000D03*
%TO.P,J4,3,Pin_3*%
%TO.N,/USART1_RX*%
X142170000Y-55500000D03*
%TO.P,J4,4,Pin_4*%
%TO.N,GND*%
X139630000Y-55500000D03*
%TD*%
D14*
%TO.P,FB1,1*%
%TO.N,+3.3VA*%
X137250000Y-75212500D03*
%TO.P,FB1,2*%
%TO.N,+3.3V*%
X137250000Y-76787500D03*
%TD*%
D33*
%TO.N,GND*%
X158250000Y-83750000D03*
X164555000Y-79490000D03*
X161750000Y-69675000D03*
X138000000Y-66750000D03*
X141045164Y-72488145D03*
X151500000Y-69675000D03*
X146250000Y-74250000D03*
X157500000Y-83750000D03*
X155750000Y-79500000D03*
X134750000Y-77750000D03*
X143250000Y-78000000D03*
X131915380Y-73915380D03*
X132250000Y-72250000D03*
X162250000Y-81500000D03*
X134750000Y-74750000D03*
X130000000Y-63500000D03*
X155750000Y-80250000D03*
%TO.N,+3.3V*%
X142750000Y-88500000D03*
X132750000Y-70250000D03*
X145000000Y-85000000D03*
X141000000Y-88500000D03*
X133000000Y-75250000D03*
X147000000Y-85000000D03*
%TD*%
D34*
%TO.N,GND*%
X138270000Y-72020000D02*
X138500000Y-72250000D01*
X149500000Y-69250000D02*
X148162500Y-69250000D01*
X134730000Y-75500000D02*
X134730000Y-74770000D01*
X164500000Y-79435000D02*
X164555000Y-79490000D01*
X146250000Y-75662500D02*
X146250000Y-76750000D01*
X149730000Y-69480000D02*
X149500000Y-69250000D01*
X146250000Y-76750000D02*
X147230000Y-77730000D01*
X150000000Y-69480000D02*
X151305000Y-69480000D01*
X141750000Y-66495466D02*
X141980000Y-66265466D01*
X131000000Y-72290000D02*
X132210000Y-72290000D01*
D35*
X138000000Y-67540000D02*
X138000000Y-66750000D01*
D34*
X138500000Y-72250000D02*
X139837500Y-72250000D01*
X134730000Y-74770000D02*
X134750000Y-74750000D01*
D35*
X141980000Y-64000000D02*
X141980000Y-65500000D01*
D34*
X146250000Y-75662500D02*
X146250000Y-74250000D01*
X164400000Y-69955000D02*
X164120000Y-69675000D01*
X141000000Y-72500000D02*
X141011855Y-72488145D01*
D35*
X142480000Y-78000000D02*
X143250000Y-78000000D01*
D34*
X134750000Y-77000000D02*
X134750000Y-77750000D01*
X129260000Y-64500000D02*
X129260000Y-64240000D01*
X131580760Y-74250000D02*
X131915380Y-73915380D01*
X151305000Y-69480000D02*
X151500000Y-69675000D01*
X139837500Y-72250000D02*
X140750000Y-72250000D01*
X138000000Y-72020000D02*
X138270000Y-72020000D01*
X129260000Y-64240000D02*
X130000000Y-63500000D01*
X141011855Y-72488145D02*
X141045164Y-72488145D01*
X132210000Y-72290000D02*
X132250000Y-72250000D01*
X141750000Y-67337500D02*
X141750000Y-66495466D01*
X164120000Y-69675000D02*
X161750000Y-69675000D01*
X164500000Y-78260000D02*
X164500000Y-79435000D01*
X140750000Y-72250000D02*
X141000000Y-72500000D01*
X131000000Y-74250000D02*
X131580760Y-74250000D01*
X147230000Y-77730000D02*
X148250000Y-77730000D01*
X150000000Y-69480000D02*
X149730000Y-69480000D01*
X141980000Y-66265466D02*
X141980000Y-65500000D01*
D35*
%TO.N,+3.3V*%
X141000000Y-88500000D02*
X141000000Y-89630000D01*
X159040000Y-55500000D02*
X157739000Y-54199000D01*
X135710000Y-77852075D02*
X134312075Y-79250000D01*
X134312075Y-79250000D02*
X132750000Y-79250000D01*
X160750000Y-83400000D02*
X160250000Y-83900000D01*
X132750000Y-70250000D02*
X130510000Y-70250000D01*
X143010000Y-88240000D02*
X142750000Y-88500000D01*
X149750000Y-85000000D02*
X147000000Y-85000000D01*
X130510000Y-70250000D02*
X129260000Y-69000000D01*
X139880000Y-90750000D02*
X139250000Y-90750000D01*
X141000000Y-89630000D02*
X139880000Y-90750000D01*
X151750000Y-91500000D02*
X149750000Y-89500000D01*
D34*
X138500000Y-68750000D02*
X139837500Y-68750000D01*
D35*
X166750000Y-63750000D02*
X166750000Y-63210000D01*
X149750000Y-89500000D02*
X149750000Y-85000000D01*
X132750000Y-75500000D02*
X133000000Y-75250000D01*
X137250000Y-88750000D02*
X137250000Y-76787500D01*
X160250000Y-90750000D02*
X159500000Y-91500000D01*
X157739000Y-54199000D02*
X148551000Y-54199000D01*
X168462500Y-79037500D02*
X169500000Y-78000000D01*
X164600000Y-83400000D02*
X160750000Y-83400000D01*
D34*
X141020000Y-66230000D02*
X141020000Y-65500000D01*
D35*
X145000000Y-86010000D02*
X146490000Y-87500000D01*
X169500000Y-78000000D02*
X169500000Y-77000000D01*
X148551000Y-54199000D02*
X147250000Y-55500000D01*
D34*
X141250000Y-67337500D02*
X141250000Y-66500000D01*
D35*
X166750000Y-63210000D02*
X162895000Y-59355000D01*
X139000000Y-64000000D02*
X141020000Y-64000000D01*
X135710000Y-77000000D02*
X135710000Y-77852075D01*
X162895000Y-59595000D02*
X153500000Y-68990000D01*
X145000000Y-85000000D02*
X145000000Y-86010000D01*
X143010000Y-87500000D02*
X146490000Y-87500000D01*
X166305000Y-79037500D02*
X168462500Y-79037500D01*
D34*
X149500000Y-68750000D02*
X148162500Y-68750000D01*
D35*
X166305000Y-81695000D02*
X164600000Y-83400000D01*
D34*
X149730000Y-68520000D02*
X149500000Y-68750000D01*
X141000000Y-66250000D02*
X141020000Y-66230000D01*
D35*
X139250000Y-90750000D02*
X137250000Y-88750000D01*
D34*
X150000000Y-68520000D02*
X149730000Y-68520000D01*
X138250000Y-68500000D02*
X138500000Y-68750000D01*
D35*
X169500000Y-77000000D02*
X168344017Y-77000000D01*
X168344017Y-77000000D02*
X166750000Y-75405983D01*
X159500000Y-91500000D02*
X151750000Y-91500000D01*
X132750000Y-70250000D02*
X137375000Y-65625000D01*
X135710000Y-77000000D02*
X137037500Y-77000000D01*
X137375000Y-65625000D02*
X138125000Y-65625000D01*
X160250000Y-83900000D02*
X160250000Y-90750000D01*
X162895000Y-59355000D02*
X159040000Y-55500000D01*
X149750000Y-77500000D02*
X149020000Y-76770000D01*
D34*
X141250000Y-66500000D02*
X141000000Y-66250000D01*
D35*
X137037500Y-77000000D02*
X137250000Y-76787500D01*
X166750000Y-75405983D02*
X166750000Y-63750000D01*
X153030000Y-68520000D02*
X153500000Y-68990000D01*
X139837500Y-67337500D02*
X139837500Y-68649000D01*
D34*
X147142500Y-75662500D02*
X148250000Y-76770000D01*
D35*
X143010000Y-87500000D02*
X143010000Y-88240000D01*
X149020000Y-76770000D02*
X148250000Y-76770000D01*
X162895000Y-59355000D02*
X162895000Y-59595000D01*
X137375000Y-65625000D02*
X139000000Y-64000000D01*
X149750000Y-85000000D02*
X149750000Y-77500000D01*
X132750000Y-79250000D02*
X132750000Y-75500000D01*
D34*
X138000000Y-68500000D02*
X138250000Y-68500000D01*
D35*
X138125000Y-65625000D02*
X139837500Y-67337500D01*
X141020000Y-64000000D02*
X141020000Y-65500000D01*
D34*
X146750000Y-75662500D02*
X147142500Y-75662500D01*
D35*
X166305000Y-79037500D02*
X166305000Y-81695000D01*
X150000000Y-68520000D02*
X153030000Y-68520000D01*
D34*
%TO.N,+3.3VA*%
X138000000Y-72980000D02*
X138270000Y-72980000D01*
X138270000Y-72980000D02*
X138500000Y-72750000D01*
D35*
X138000000Y-74462500D02*
X137250000Y-75212500D01*
D34*
X138500000Y-72750000D02*
X139837500Y-72750000D01*
D35*
X135690000Y-75500000D02*
X136962500Y-75500000D01*
X136962500Y-75500000D02*
X137250000Y-75212500D01*
X138000000Y-72980000D02*
X138000000Y-74462500D01*
D34*
%TO.N,/NRST*%
X140750000Y-78000000D02*
X141520000Y-78000000D01*
X141750000Y-72250000D02*
X141750000Y-72750000D01*
X141250000Y-74250000D02*
X140250000Y-75250000D01*
X140250000Y-75250000D02*
X140250000Y-77500000D01*
X141250000Y-71750000D02*
X141750000Y-72250000D01*
X140250000Y-77500000D02*
X140750000Y-78000000D01*
X139837500Y-71750000D02*
X141250000Y-71750000D01*
X141750000Y-72750000D02*
X141250000Y-73250000D01*
X141250000Y-73250000D02*
X141250000Y-74250000D01*
%TO.N,/HSE_IN*%
X139837500Y-70750000D02*
X135750000Y-70750000D01*
X130699000Y-73551000D02*
X128851000Y-73551000D01*
X131000000Y-73250000D02*
X130699000Y-73551000D01*
X135000000Y-71500000D02*
X135000000Y-73000000D01*
X128851000Y-73551000D02*
X127800000Y-72500000D01*
X135000000Y-73000000D02*
X134750000Y-73250000D01*
X134750000Y-73250000D02*
X131000000Y-73250000D01*
X135750000Y-70750000D02*
X135000000Y-71500000D01*
%TO.N,/HSE_OUT*%
X135500000Y-74000000D02*
X132750000Y-74000000D01*
X129500000Y-74700000D02*
X130010000Y-75210000D01*
X131540000Y-75210000D02*
X131000000Y-75210000D01*
X136000000Y-71250000D02*
X135500000Y-71750000D01*
X130010000Y-75210000D02*
X131000000Y-75210000D01*
X132750000Y-74000000D02*
X131540000Y-75210000D01*
X135500000Y-71750000D02*
X135500000Y-74000000D01*
X139837500Y-71250000D02*
X136000000Y-71250000D01*
D35*
%TO.N,/PWR_LED_K*%
X164500000Y-77240000D02*
X166082500Y-77240000D01*
X166082500Y-77240000D02*
X166305000Y-77462500D01*
D36*
%TO.N,/USB_D+*%
X149293751Y-70275000D02*
X162593000Y-70275000D01*
X148162500Y-70250000D02*
X149268751Y-70250000D01*
X163449000Y-71131000D02*
X164262397Y-71131000D01*
X164386397Y-71255000D02*
X164400000Y-71255000D01*
X149268751Y-70250000D02*
X149293751Y-70275000D01*
X162593000Y-70275000D02*
X163449000Y-71131000D01*
X164262397Y-71131000D02*
X164386397Y-71255000D01*
%TO.N,/USB_D-*%
X164276000Y-71781000D02*
X164400000Y-71905000D01*
X149268751Y-70750000D02*
X149293751Y-70725000D01*
X149293751Y-70725000D02*
X162406632Y-70725000D01*
X148162500Y-70750000D02*
X149268751Y-70750000D01*
X162406632Y-70725000D02*
X163462632Y-71781000D01*
X163462632Y-71781000D02*
X164276000Y-71781000D01*
D34*
%TO.N,/I2C2_SDA*%
X147510000Y-87500000D02*
X147510000Y-88200000D01*
X145750000Y-85740000D02*
X147510000Y-87500000D01*
X145750000Y-75662500D02*
X145750000Y-85740000D01*
X147510000Y-88200000D02*
X144960000Y-90750000D01*
%TO.N,/I2C2_SCL*%
X145250000Y-77000000D02*
X141990000Y-80260000D01*
X145250000Y-75662500D02*
X145250000Y-77000000D01*
X141990000Y-80260000D02*
X141990000Y-87500000D01*
X141990000Y-87500000D02*
X141990000Y-90320000D01*
X141990000Y-90320000D02*
X142420000Y-90750000D01*
%TO.N,/USART1_TX*%
X144250000Y-55960000D02*
X144710000Y-55500000D01*
X144250000Y-67337500D02*
X144250000Y-55960000D01*
%TO.N,/USART1_RX*%
X143750000Y-57080000D02*
X142170000Y-55500000D01*
X143750000Y-67337500D02*
X143750000Y-57080000D01*
%TO.N,/BOOT0*%
X133750000Y-62750000D02*
X132500000Y-64000000D01*
X132500000Y-66000000D02*
X132010000Y-66490000D01*
X142500000Y-62750000D02*
X133750000Y-62750000D01*
X132500000Y-64000000D02*
X132500000Y-66000000D01*
X143250000Y-67337500D02*
X143250000Y-63500000D01*
X143250000Y-63500000D02*
X142500000Y-62750000D01*
X132010000Y-66490000D02*
X131000000Y-66490000D01*
%TO.N,/SW_BOOT0 :)*%
X129270000Y-67510000D02*
X129260000Y-67500000D01*
X131000000Y-67510000D02*
X129270000Y-67510000D01*
%TO.N,/SYS_SWCLK*%
X146750000Y-67337500D02*
X146750000Y-65500000D01*
X146750000Y-65500000D02*
X153960000Y-58290000D01*
X153960000Y-58290000D02*
X153960000Y-55500000D01*
%TO.N,/SYS_SWIDO*%
X146750000Y-68750000D02*
X156500000Y-59000000D01*
X156500000Y-59000000D02*
X156500000Y-55500000D01*
X146750000Y-69500000D02*
X146750000Y-68750000D01*
X147000000Y-69750000D02*
X146750000Y-69500000D01*
X148162500Y-69750000D02*
X147000000Y-69750000D01*
%TD*%
%TA.AperFunction,Conductor*%
%TO.N,GND*%
G36*
X157193039Y-78769685D02*
G01*
X157238794Y-78822489D01*
X157250000Y-78874000D01*
X157250000Y-80750000D01*
X163126000Y-80750000D01*
X163193039Y-80769685D01*
X163238794Y-80822489D01*
X163250000Y-80874000D01*
X163250000Y-82376000D01*
X163230315Y-82443039D01*
X163177511Y-82488794D01*
X163126000Y-82500000D01*
X161854922Y-82500000D01*
X161798722Y-82486532D01*
X161779111Y-82476561D01*
X161779110Y-82476560D01*
X161779107Y-82476559D01*
X161712078Y-82456877D01*
X161712072Y-82456876D01*
X161626000Y-82444500D01*
X159612219Y-82444500D01*
X159612201Y-82444500D01*
X159562237Y-82448617D01*
X159562206Y-82448621D01*
X159522200Y-82455257D01*
X159498171Y-82460240D01*
X159462541Y-82476561D01*
X159435960Y-82488736D01*
X159384323Y-82500000D01*
X159250000Y-82500000D01*
X159250000Y-82617670D01*
X159232878Y-82676110D01*
X159234621Y-82677013D01*
X159231987Y-82682100D01*
X159205729Y-82746846D01*
X159184850Y-82831257D01*
X159054142Y-84138339D01*
X159027884Y-84203087D01*
X158970789Y-84243360D01*
X158930757Y-84250000D01*
X157113239Y-84250000D01*
X157046200Y-84230315D01*
X157000445Y-84177511D01*
X156989748Y-84137226D01*
X156806009Y-82116099D01*
X156805500Y-82104873D01*
X156805500Y-81124010D01*
X156805500Y-81124000D01*
X156798518Y-81059059D01*
X156787312Y-81007548D01*
X156776354Y-80969342D01*
X156719675Y-80872429D01*
X156673920Y-80819625D01*
X156673918Y-80819623D01*
X156673908Y-80819612D01*
X156629192Y-80777451D01*
X156629189Y-80777449D01*
X156629187Y-80777447D01*
X156529111Y-80726561D01*
X156529110Y-80726560D01*
X156529109Y-80726560D01*
X156462078Y-80706877D01*
X156462072Y-80706876D01*
X156376000Y-80694500D01*
X154624000Y-80694500D01*
X154623991Y-80694500D01*
X154623990Y-80694501D01*
X154559064Y-80701481D01*
X154559052Y-80701483D01*
X154507546Y-80712688D01*
X154469345Y-80723644D01*
X154469334Y-80723649D01*
X154455411Y-80731792D01*
X154387604Y-80748643D01*
X154322050Y-80726577D01*
X154290138Y-80704399D01*
X154290128Y-80704393D01*
X154212395Y-80665440D01*
X154212394Y-80665439D01*
X154212391Y-80665438D01*
X154023849Y-80602590D01*
X153890287Y-80558069D01*
X153832913Y-80518194D01*
X153806204Y-80453631D01*
X153805500Y-80440432D01*
X153805500Y-78998474D01*
X153808912Y-78986853D01*
X153807782Y-78974792D01*
X153818574Y-78953948D01*
X153825185Y-78931435D01*
X153835134Y-78921964D01*
X153839908Y-78912746D01*
X153867686Y-78890980D01*
X154084168Y-78766503D01*
X154145977Y-78750000D01*
X157126000Y-78750000D01*
X157193039Y-78769685D01*
G37*
%TD.AperFunction*%
%TD*%
%TA.AperFunction,Conductor*%
%TO.N,+3.3V*%
G36*
X156443039Y-81019685D02*
G01*
X156488794Y-81072489D01*
X156500000Y-81124000D01*
X156500000Y-85250000D01*
X159249999Y-85250000D01*
X159250000Y-85250000D01*
X159488834Y-82861661D01*
X159515092Y-82796913D01*
X159572187Y-82756640D01*
X159612219Y-82750000D01*
X161626000Y-82750000D01*
X161693039Y-82769685D01*
X161738794Y-82822489D01*
X161750000Y-82874000D01*
X161750000Y-89626000D01*
X161730315Y-89693039D01*
X161677511Y-89738794D01*
X161626000Y-89750000D01*
X153374000Y-89750000D01*
X153306961Y-89730315D01*
X153261206Y-89677511D01*
X153250000Y-89626000D01*
X153250000Y-87124000D01*
X153269685Y-87056961D01*
X153322489Y-87011206D01*
X153374000Y-87000000D01*
X154500000Y-87000000D01*
X154500000Y-81124000D01*
X154519685Y-81056961D01*
X154572489Y-81011206D01*
X154624000Y-81000000D01*
X156376000Y-81000000D01*
X156443039Y-81019685D01*
G37*
%TD.AperFunction*%
%TD*%
%TA.AperFunction,Conductor*%
%TO.N,VBUS*%
G36*
X163463327Y-72269685D02*
G01*
X163489353Y-72294955D01*
X163489669Y-72294640D01*
X163497794Y-72302765D01*
X163577235Y-72382206D01*
X163680009Y-72427585D01*
X163705135Y-72430500D01*
X165094864Y-72430499D01*
X165094879Y-72430497D01*
X165094882Y-72430497D01*
X165119987Y-72427586D01*
X165119988Y-72427585D01*
X165119991Y-72427585D01*
X165222765Y-72382206D01*
X165288319Y-72316652D01*
X165349642Y-72283167D01*
X165419334Y-72288151D01*
X165475267Y-72330023D01*
X165499684Y-72395487D01*
X165500000Y-72404333D01*
X165500000Y-72876000D01*
X165480315Y-72943039D01*
X165427511Y-72988794D01*
X165376000Y-73000000D01*
X163499998Y-73000000D01*
X153500000Y-78749998D01*
X153500000Y-78750000D01*
X153500000Y-80750000D01*
X154115784Y-80955261D01*
X154173159Y-80995135D01*
X154199867Y-81059699D01*
X154199310Y-81090544D01*
X154194500Y-81123998D01*
X154194500Y-83626000D01*
X154174815Y-83693039D01*
X154122011Y-83738794D01*
X154070500Y-83750000D01*
X151874000Y-83750000D01*
X151806961Y-83730315D01*
X151761206Y-83677511D01*
X151750000Y-83626000D01*
X151750000Y-78817293D01*
X151769685Y-78750254D01*
X151806420Y-78713326D01*
X161719180Y-72270033D01*
X161786117Y-72250002D01*
X161786759Y-72250000D01*
X163396288Y-72250000D01*
X163463327Y-72269685D01*
G37*
%TD.AperFunction*%
%TD*%
M02*
